<svg width="626" height="187" viewBox="0 0 626 187" fill="none" xmlns="http://www.w3.org/2000/svg">
<g opacity="0.35">
<mask id="path-1-outside-1_310_201" maskUnits="userSpaceOnUse" x="0" y="0" width="626" height="187" fill="black">
<rect fill="white" width="626" height="187"/>
<path d="M28.92 23.68L34.872 71.2L57.72 23.68H75.192L43.032 88H22.008L12.6 23.68H28.92ZM102.332 89.344C96.5723 89.344 91.5163 88.128 87.1643 85.696C82.8763 83.2 79.5483 79.68 77.1803 75.136C74.8123 70.592 73.6283 65.248 73.6283 59.104C73.6283 53.728 74.5883 48.8 76.5083 44.32C78.4923 39.84 81.2123 35.968 84.6683 32.704C88.1243 29.44 92.0603 26.912 96.4763 25.12C100.956 23.264 105.692 22.336 110.684 22.336C116.444 22.336 121.468 23.584 125.756 26.08C130.044 28.512 133.372 32 135.74 36.544C138.172 41.088 139.388 46.432 139.388 52.576C139.388 57.888 138.396 62.816 136.412 67.36C134.428 71.84 131.708 75.712 128.252 78.976C124.796 82.24 120.828 84.8 116.348 86.656C111.932 88.448 107.26 89.344 102.332 89.344ZM109.532 38.272C106.78 38.272 104.22 38.848 101.852 40C99.4843 41.152 97.4043 42.72 95.6123 44.704C93.8843 46.688 92.5083 48.928 91.4843 51.424C90.5243 53.92 90.0443 56.48 90.0443 59.104C90.0443 61.728 90.5563 64.128 91.5803 66.304C92.6043 68.48 94.1083 70.208 96.0923 71.488C98.1403 72.768 100.572 73.408 103.388 73.408C106.204 73.408 108.796 72.832 111.164 71.68C113.532 70.528 115.58 68.96 117.308 66.976C119.1 64.992 120.476 62.752 121.436 60.256C122.396 57.76 122.876 55.2 122.876 52.576C122.876 49.952 122.364 47.552 121.34 45.376C120.316 43.2 118.812 41.472 116.828 40.192C114.844 38.912 112.412 38.272 109.532 38.272ZM145.441 59.2C145.441 53.888 146.337 48.992 148.129 44.512C149.985 39.968 152.545 36.064 155.809 32.8C159.073 29.472 162.881 26.912 167.233 25.12C171.585 23.264 176.321 22.336 181.441 22.336C185.921 22.336 189.825 23.008 193.153 24.352C196.545 25.696 199.393 27.488 201.697 29.728C204.065 31.968 205.953 34.4 207.361 37.024L194.017 45.76C192.865 43.52 191.201 41.664 189.025 40.192C186.913 38.656 184.193 37.888 180.865 37.888C178.241 37.888 175.777 38.4 173.473 39.424C171.233 40.448 169.249 41.856 167.521 43.648C165.857 45.44 164.545 47.616 163.585 50.176C162.689 52.672 162.241 55.424 162.241 58.432C162.241 61.44 162.721 64.096 163.681 66.4C164.705 68.704 166.209 70.496 168.193 71.776C170.241 73.056 172.737 73.696 175.681 73.696C178.817 73.696 181.569 72.928 183.937 71.392C186.369 69.856 188.577 67.936 190.561 65.632L201.889 75.136C199.009 79.424 195.169 82.88 190.369 85.504C185.633 88.064 180.257 89.344 174.241 89.344C168.289 89.344 163.169 88.032 158.881 85.408C154.593 82.784 151.265 79.2 148.897 74.656C146.593 70.112 145.441 64.96 145.441 59.2ZM255.44 48.928L253.136 62.08H228.752L226.832 72.928H254.864L252.176 88H208.4L219.728 23.68H263.312L260.72 38.752H232.88L231.056 48.928H255.44ZM235.664 1.984H255.152L263.024 19.072H248.912L244.304 8.608L235.952 19.072H221.552L235.664 1.984ZM290.324 68.704C292.436 70.368 294.932 71.904 297.812 73.312C300.756 74.656 303.764 75.328 306.836 75.328C309.844 75.328 311.988 74.912 313.268 74.08C314.548 73.184 315.188 71.968 315.188 70.432C315.188 69.152 314.772 68.096 313.94 67.264C313.172 66.432 311.668 65.504 309.428 64.48L300.692 60.832C296.596 59.104 293.492 56.704 291.38 53.632C289.268 50.56 288.212 46.912 288.212 42.688C288.212 38.336 289.236 34.656 291.284 31.648C293.396 28.64 296.276 26.336 299.924 24.736C303.572 23.136 307.764 22.336 312.5 22.336C317.3 22.336 321.684 22.944 325.652 24.16C329.684 25.312 333.172 26.944 336.116 29.056L327.572 41.728C325.524 40.256 323.156 39.008 320.468 37.984C317.844 36.896 315.092 36.352 312.212 36.352C310.612 36.352 309.268 36.576 308.18 37.024C307.092 37.408 306.292 37.984 305.78 38.752C305.268 39.456 305.012 40.256 305.012 41.152C305.012 42.368 305.332 43.36 305.972 44.128C306.676 44.832 307.796 45.536 309.332 46.24L317.396 49.696C322.004 51.68 325.62 54.144 328.244 57.088C330.868 59.968 332.18 63.904 332.18 68.896C332.18 73.184 331.124 76.864 329.012 79.936C326.964 83.008 324.084 85.344 320.372 86.944C316.66 88.544 312.276 89.344 307.22 89.344C302.036 89.344 297.3 88.64 293.012 87.232C288.724 85.76 284.916 83.776 281.588 81.28L290.324 68.704ZM369.051 89.344C363.291 89.344 358.235 88.128 353.883 85.696C349.595 83.2 346.267 79.68 343.899 75.136C341.531 70.592 340.347 65.248 340.347 59.104C340.347 53.728 341.307 48.8 343.227 44.32C345.211 39.84 347.931 35.968 351.387 32.704C354.843 29.44 358.779 26.912 363.195 25.12C367.675 23.264 372.411 22.336 377.403 22.336C383.163 22.336 388.187 23.584 392.475 26.08C396.763 28.512 400.091 32 402.459 36.544C404.891 41.088 406.107 46.432 406.107 52.576C406.107 57.888 405.115 62.816 403.131 67.36C401.147 71.84 398.427 75.712 394.971 78.976C391.515 82.24 387.547 84.8 383.067 86.656C378.651 88.448 373.979 89.344 369.051 89.344ZM376.251 38.272C373.499 38.272 370.939 38.848 368.571 40C366.203 41.152 364.123 42.72 362.331 44.704C360.603 46.688 359.227 48.928 358.203 51.424C357.243 53.92 356.763 56.48 356.763 59.104C356.763 61.728 357.275 64.128 358.299 66.304C359.323 68.48 360.827 70.208 362.811 71.488C364.859 72.768 367.291 73.408 370.107 73.408C372.923 73.408 375.515 72.832 377.883 71.68C380.251 70.528 382.299 68.96 384.027 66.976C385.819 64.992 387.195 62.752 388.155 60.256C389.115 57.76 389.595 55.2 389.595 52.576C389.595 49.952 389.083 47.552 388.059 45.376C387.035 43.2 385.531 41.472 383.547 40.192C381.563 38.912 379.131 38.272 376.251 38.272ZM387.195 2.08H404.091L387.291 19.168H372.795L387.195 2.08ZM443.95 88L452.686 38.656H433.966L436.558 23.68H489.742L487.15 38.656H468.43L459.694 88H443.95ZM534.722 48.928L532.417 62.08H508.034L506.114 72.928H534.146L531.458 88H487.682L499.01 23.68H542.594L540.002 38.752H512.161L510.338 48.928H534.722ZM554.135 23.68H572.087L581.015 67.072L605.207 23.68H624.023L612.695 88H597.143L603.287 52.864L583.991 88H571.607L564.599 52.864L558.359 88H542.807L554.135 23.68ZM48.504 184L46.776 170.752H24.408L18.072 184H1.656L34.008 119.68H54.936L64.728 184H48.504ZM45.048 157.408L41.976 134.272L30.84 157.408H45.048ZM150.884 174.784C147.3 178.048 143.268 180.64 138.788 182.56C134.372 184.416 129.284 185.344 123.524 185.344C117.124 185.344 111.78 184.032 107.492 181.408C103.204 178.72 99.9723 175.104 97.7963 170.56C95.6843 166.016 94.6283 160.896 94.6283 155.2C94.6283 150.208 95.5243 145.504 97.3163 141.088C99.1083 136.672 101.636 132.768 104.9 129.376C108.164 125.984 111.972 123.328 116.324 121.408C120.74 119.488 125.54 118.528 130.724 118.528C135.268 118.528 139.3 119.168 142.82 120.448C146.404 121.728 149.444 123.424 151.94 125.536C154.436 127.648 156.388 129.92 157.796 132.352L143.78 141.472C142.628 139.296 140.9 137.504 138.596 136.096C136.356 134.688 133.572 133.984 130.244 133.984C127.556 133.984 125.06 134.528 122.756 135.616C120.516 136.64 118.532 138.08 116.804 139.936C115.14 141.792 113.828 143.968 112.868 146.464C111.972 148.96 111.524 151.68 111.524 154.624C111.524 157.568 112.004 160.192 112.964 162.496C113.988 164.8 115.524 166.624 117.572 167.968C119.62 169.312 122.18 169.984 125.252 169.984C128.26 169.984 131.076 169.408 133.7 168.256C134.916 167.744 136.036 167.168 137.06 166.528L138.404 159.04H126.308L128.516 147.04H155.972L150.884 174.784ZM202.442 184L200.714 170.752H178.346L172.01 184H155.593L187.946 119.68H208.874L218.666 184H202.442ZM198.986 157.408L195.914 134.272L184.778 157.408H198.986ZM238.76 119.68H252.776L270.92 157.504L277.544 119.68H293.288L281.96 184H267.752L249.704 146.368L243.08 184H227.432L238.76 119.68ZM307.103 119.68H322.847L318.527 144.448H341.567L345.983 119.68H361.727L350.399 184H334.655L339.071 159.136H315.935L311.519 184H295.775L307.103 119.68ZM406.067 184L404.339 170.752H381.971L375.635 184H359.218L391.571 119.68H412.499L422.291 184H406.067ZM402.611 157.408L399.539 134.272L388.403 157.408H402.611ZM487.697 139.168C487.697 143.392 486.609 147.232 484.433 150.688C482.321 154.08 479.185 156.768 475.025 158.752C473.873 159.328 472.625 159.808 471.281 160.192L484.337 184H466.289L455.536 161.728H450.737L446.801 184H431.057L442.385 119.68H465.041C469.969 119.68 474.097 120.48 477.425 122.08C480.817 123.68 483.377 125.952 485.105 128.896C486.833 131.776 487.697 135.2 487.697 139.168ZM452.945 149.152H460.913C464.049 149.152 466.545 148.256 468.401 146.464C470.321 144.608 471.281 142.272 471.281 139.456C471.281 137.28 470.609 135.68 469.265 134.656C467.985 133.568 466.129 133.024 463.697 133.024H455.825L452.945 149.152ZM497.343 163.072L502.911 119.68H518.751L509.055 163.072H497.343ZM499.551 185.344C497.375 185.344 495.583 184.64 494.175 183.232C492.767 181.76 492.063 179.904 492.063 177.664C492.063 175.744 492.511 174.048 493.407 172.576C494.303 171.104 495.487 169.952 496.959 169.12C498.431 168.224 500.031 167.776 501.759 167.776C503.935 167.776 505.695 168.512 507.039 169.984C508.447 171.392 509.151 173.216 509.151 175.456C509.151 177.312 508.703 179.008 507.807 180.544C506.975 182.016 505.823 183.168 504.351 184C502.879 184.896 501.279 185.344 499.551 185.344Z"/>
</mask>
<path d="M28.92 23.68L29.9122 23.5557L29.8026 22.68H28.92V23.68ZM34.872 71.2L33.8798 71.3243L34.3018 74.6937L35.7732 71.6333L34.872 71.2ZM57.72 23.68V22.68H57.0912L56.8188 23.2467L57.72 23.68ZM75.192 23.68L76.0864 24.1272L76.81 22.68H75.192V23.68ZM43.032 88V89H43.65L43.9264 88.4472L43.032 88ZM22.008 88L21.0185 88.1447L21.1436 89H22.008V88ZM12.6 23.68V22.68H11.4431L11.6105 23.8247L12.6 23.68ZM27.9278 23.8043L33.8798 71.3243L35.8643 71.0757L29.9122 23.5557L27.9278 23.8043ZM35.7732 71.6333L58.6212 24.1133L56.8188 23.2467L33.9708 70.7667L35.7732 71.6333ZM57.72 24.68H75.192V22.68H57.72V24.68ZM74.2976 23.2328L42.1376 87.5528L43.9264 88.4472L76.0864 24.1272L74.2976 23.2328ZM43.032 87H22.008V89H43.032V87ZM22.9975 87.8553L13.5895 23.5353L11.6105 23.8247L21.0185 88.1447L22.9975 87.8553ZM12.6 24.68H28.92V22.68H12.6V24.68ZM87.1643 85.696L86.6612 86.5602L86.6688 86.5647L86.6764 86.5689L87.1643 85.696ZM77.1803 75.136L76.2934 75.5981L77.1803 75.136ZM76.5082 44.32L75.5938 43.915L75.5891 43.9261L76.5082 44.32ZM84.6683 32.704L83.9816 31.977L84.6683 32.704ZM96.4762 25.12L96.8523 26.0466L96.859 26.0439L96.4762 25.12ZM125.756 26.08L125.253 26.9443L125.263 26.9498L125.756 26.08ZM135.74 36.544L134.853 37.0062L134.859 37.0159L135.74 36.544ZM136.412 67.36L137.327 67.7649L137.329 67.7601L136.412 67.36ZM128.252 78.976L128.939 79.703L128.252 78.976ZM116.348 86.656L116.724 87.5826L116.731 87.5799L116.348 86.656ZM101.852 40L102.29 40.8992L101.852 40ZM95.6123 44.704L94.8701 44.0337L94.8641 44.0404L94.8582 44.0472L95.6123 44.704ZM91.4843 51.424L90.5591 51.0444L90.5549 51.0547L90.5509 51.065L91.4843 51.424ZM96.0923 71.488L95.5501 72.3283L95.5562 72.3322L95.5622 72.336L96.0923 71.488ZM111.164 71.68L111.602 72.5792L111.164 71.68ZM117.308 66.976L116.566 66.3057L116.56 66.3124L116.554 66.3192L117.308 66.976ZM121.436 60.256L120.503 59.897V59.897L121.436 60.256ZM121.34 45.376L120.435 45.8018V45.8018L121.34 45.376ZM116.828 40.192L117.37 39.3517L116.828 40.192ZM102.332 88.344C96.7162 88.344 91.8332 87.1596 87.6521 84.8231L86.6764 86.5689C91.1993 89.0964 96.4283 90.344 102.332 90.344V88.344ZM87.6673 84.8318C83.5482 82.4341 80.3507 79.056 78.0671 74.6739L76.2934 75.5981C78.7458 80.304 82.2043 83.9659 86.6612 86.5602L87.6673 84.8318ZM78.0671 74.6739C75.7868 70.2983 74.6283 65.1189 74.6283 59.104H72.6283C72.6283 65.3771 73.8377 70.8857 76.2934 75.5981L78.0671 74.6739ZM74.6283 59.104C74.6283 53.8494 75.566 49.0572 77.4274 44.7139L75.5891 43.9261C73.6105 48.5428 72.6283 53.6066 72.6283 59.104H74.6283ZM77.4226 44.7249C79.3545 40.3625 81.9984 36.601 85.3549 33.431L83.9816 31.977C80.4261 35.335 77.63 39.3175 75.5939 43.9151L77.4226 44.7249ZM85.3549 33.431C88.7204 30.2525 92.551 27.7921 96.8523 26.0466L96.1002 24.1934C91.5695 26.0319 87.5281 28.6275 83.9816 31.977L85.3549 33.431ZM96.859 26.0439C101.214 24.2396 105.82 23.336 110.684 23.336V21.336C105.565 21.336 100.698 22.2884 96.0935 24.1961L96.859 26.0439ZM110.684 23.336C116.296 23.336 121.141 24.5506 125.253 26.9442L126.259 25.2157C121.795 22.6174 116.592 21.336 110.684 21.336V23.336ZM125.263 26.9498C129.376 29.2828 132.571 32.626 134.853 37.0061L136.627 36.0819C134.174 31.374 130.712 27.7412 126.25 25.2102L125.263 26.9498ZM134.859 37.0159C137.199 41.3893 138.388 46.5651 138.388 52.576H140.388C140.388 46.2989 139.145 40.7867 136.622 36.0721L134.859 37.0159ZM138.388 52.576C138.388 57.7603 137.421 62.5509 135.496 66.9599L137.329 67.7601C139.372 63.0811 140.388 58.0157 140.388 52.576H138.388ZM135.498 66.9551C133.566 71.3175 130.922 75.079 127.566 78.249L128.939 79.703C132.494 76.345 135.291 72.3625 137.327 67.7649L135.498 66.9551ZM127.566 78.249C124.2 81.4277 120.335 83.9218 115.966 85.7321L116.731 87.5799C121.321 85.6782 125.393 83.0523 128.939 79.703L127.566 78.249ZM115.972 85.7294C111.68 87.4713 107.136 88.344 102.332 88.344V90.344C107.385 90.344 112.185 89.4247 116.724 87.5826L115.972 85.7294ZM109.532 37.272C106.636 37.272 103.925 37.8795 101.415 39.1008L102.29 40.8992C104.515 39.8165 106.925 39.272 109.532 39.272V37.272ZM101.415 39.1008C98.9297 40.3097 96.7467 41.9561 94.8701 44.0337L96.3544 45.3743C98.0618 43.4839 100.039 41.9943 102.29 40.8992L101.415 39.1008ZM94.8582 44.0472C93.0565 46.1157 91.6235 48.4499 90.5591 51.0444L92.4094 51.8036C93.393 49.4061 94.712 47.2602 96.3663 45.3608L94.8582 44.0472ZM90.5509 51.065C89.5477 53.6733 89.0443 56.3549 89.0443 59.104H91.0443C91.0443 56.6051 91.5008 54.1667 92.4176 51.783L90.5509 51.065ZM89.0443 59.104C89.0443 61.8616 89.5832 64.4088 90.6754 66.7298L92.4851 65.8782C91.5293 63.8472 91.0443 61.5944 91.0443 59.104H89.0443ZM90.6754 66.7298C91.7776 69.0719 93.4058 70.9448 95.5501 72.3283L96.6344 70.6477C94.8107 69.4712 93.4309 67.8881 92.4851 65.8782L90.6754 66.7298ZM95.5622 72.336C97.794 73.7309 100.416 74.408 103.388 74.408V72.408C100.728 72.408 98.4865 71.8051 96.6223 70.64L95.5622 72.336ZM103.388 74.408C106.345 74.408 109.088 73.8021 111.602 72.5792L110.727 70.7808C108.504 71.8619 106.063 72.408 103.388 72.408V74.408ZM111.602 72.5792C114.09 71.3685 116.246 69.7181 118.062 67.6328L116.554 66.3192C114.914 68.2019 112.974 69.6875 110.727 70.7808L111.602 72.5792ZM118.05 67.6463C119.925 65.5711 121.366 63.2256 122.37 60.615L120.503 59.897C119.587 62.2784 118.276 64.4129 116.566 66.3057L118.05 67.6463ZM122.37 60.615C123.373 58.0067 123.876 55.3251 123.876 52.576H121.876C121.876 55.0749 121.42 57.5133 120.503 59.897L122.37 60.615ZM123.876 52.576C123.876 49.8184 123.337 47.2712 122.245 44.9502L120.435 45.8018C121.391 47.8328 121.876 50.0856 121.876 52.576H123.876ZM122.245 44.9502C121.143 42.6081 119.515 40.7352 117.37 39.3517L116.286 41.0323C118.11 42.2088 119.49 43.7919 120.435 45.8018L122.245 44.9502ZM117.37 39.3517C115.192 37.9466 112.562 37.272 109.532 37.272V39.272C112.262 39.272 114.496 39.8774 116.286 41.0323L117.37 39.3517ZM148.129 44.512L147.203 44.1339L147.2 44.1406L148.129 44.512ZM155.809 32.8L156.516 33.5071L156.523 33.5002L155.809 32.8ZM167.233 25.12L167.614 26.0447L167.625 26.0398L167.233 25.12ZM193.153 24.352L192.778 25.2793L192.784 25.2817L193.153 24.352ZM201.697 29.728L201 30.4451L201.01 30.4545L201.697 29.728ZM207.361 37.024L207.908 37.8606L208.675 37.3587L208.242 36.5512L207.361 37.024ZM194.017 45.76L193.127 46.2173L193.635 47.2049L194.564 46.5966L194.017 45.76ZM189.025 40.192L188.437 41.0007L188.45 41.0107L188.464 41.0203L189.025 40.192ZM173.473 39.424L173.067 38.5101L173.057 38.5145L173.473 39.424ZM167.521 43.648L166.801 42.9539L166.794 42.9606L166.788 42.9675L167.521 43.648ZM163.585 50.176L162.648 49.8248L162.644 49.8381L163.585 50.176ZM163.681 66.4L162.758 66.7846L162.762 66.7954L162.767 66.8061L163.681 66.4ZM168.193 71.776L167.651 72.6163L167.657 72.6202L167.663 72.624L168.193 71.776ZM183.937 71.392L183.403 70.5464L183.393 70.553L183.937 71.392ZM190.561 65.632L191.203 64.8659L190.447 64.2314L189.803 64.9795L190.561 65.632ZM201.889 75.136L202.719 75.6936L203.22 74.9475L202.531 74.3699L201.889 75.136ZM190.369 85.504L190.844 86.3837L190.848 86.3814L190.369 85.504ZM158.881 85.408L159.403 84.555L158.881 85.408ZM148.897 74.656L148.005 75.1083L148.01 75.1181L148.897 74.656ZM146.441 59.2C146.441 54.0024 147.317 49.2339 149.057 44.8834L147.2 44.1406C145.356 48.7501 144.441 53.7736 144.441 59.2H146.441ZM149.055 44.8901C150.863 40.4613 153.352 36.6712 156.516 33.5071L155.102 32.0929C151.738 35.4568 149.106 39.4747 147.203 44.1339L149.055 44.8901ZM156.523 33.5002C159.691 30.2698 163.385 27.7857 167.613 26.0447L166.852 24.1953C162.376 26.0383 158.454 28.6742 155.095 32.0998L156.523 33.5002ZM167.625 26.0398C171.843 24.241 176.444 23.336 181.441 23.336V21.336C176.197 21.336 171.326 22.287 166.84 24.2002L167.625 26.0398ZM181.441 23.336C185.823 23.336 189.595 23.9936 192.778 25.2792L193.527 23.4248C190.055 22.0224 186.018 21.336 181.441 21.336V23.336ZM192.784 25.2817C196.07 26.5837 198.802 28.3085 201 30.445L202.394 29.011C199.983 26.6675 197.019 24.8083 193.521 23.4223L192.784 25.2817ZM201.01 30.4545C203.307 32.6278 205.127 34.9757 206.48 37.4968L208.242 36.5512C206.779 33.8243 204.822 31.3082 202.384 29.0015L201.01 30.4545ZM206.813 36.1873L193.469 44.9233L194.564 46.5966L207.908 37.8606L206.813 36.1873ZM194.906 45.3027C193.674 42.9068 191.894 40.9256 189.585 39.3637L188.464 41.0203C190.508 42.4024 192.056 44.1332 193.127 46.2173L194.906 45.3027ZM189.613 39.3833C187.288 37.6926 184.346 36.888 180.865 36.888V38.888C184.04 38.888 186.537 39.6194 188.437 41.0007L189.613 39.3833ZM180.865 36.888C178.107 36.888 175.504 37.427 173.067 38.5102L173.879 40.3378C176.05 39.373 178.375 38.888 180.865 38.888V36.888ZM173.057 38.5145C170.702 39.5912 168.615 41.0727 166.801 42.9539L168.241 44.3421C169.883 42.6393 171.764 41.3048 173.889 40.3335L173.057 38.5145ZM166.788 42.9675C165.025 44.8657 163.649 47.1573 162.648 49.8249L164.521 50.5271C165.441 48.0747 166.688 46.0143 168.254 44.3284L166.788 42.9675ZM162.644 49.8381C161.704 52.456 161.241 55.3241 161.241 58.432H163.241C163.241 55.5239 163.674 52.888 164.526 50.5139L162.644 49.8381ZM161.241 58.432C161.241 61.5456 161.738 64.3365 162.758 66.7846L164.604 66.0154C163.704 63.8555 163.241 61.3344 163.241 58.432H161.241ZM162.767 66.8061C163.864 69.2753 165.492 71.2236 167.651 72.6163L168.735 70.9357C166.926 69.7684 165.545 68.1327 164.595 65.9939L162.767 66.8061ZM167.663 72.624C169.901 74.0231 172.591 74.696 175.681 74.696V72.696C172.883 72.696 170.58 72.0889 168.723 70.928L167.663 72.624ZM175.681 74.696C178.988 74.696 181.933 73.8835 184.481 72.231L183.393 70.553C181.204 71.9725 178.646 72.696 175.681 72.696V74.696ZM184.471 72.2375C186.991 70.6457 189.274 68.6593 191.319 66.2845L189.803 64.9795C187.88 67.2127 185.746 69.0663 183.403 70.5465L184.471 72.2375ZM189.918 66.3981L201.246 75.9021L202.531 74.3699L191.203 64.8659L189.918 66.3981ZM201.059 74.5784C198.273 78.7254 194.557 82.0748 189.889 84.6265L190.848 86.3814C195.781 83.6852 199.744 80.1226 202.719 75.6936L201.059 74.5784ZM189.893 84.6243C185.32 87.0964 180.111 88.344 174.241 88.344V90.344C180.403 90.344 185.946 89.0316 190.844 86.3837L189.893 84.6243ZM174.241 88.344C168.439 88.344 163.507 87.0665 159.403 84.555L158.359 86.261C162.831 88.9976 168.139 90.344 174.241 90.344V88.344ZM159.403 84.555C155.273 82.0277 152.069 78.5801 149.784 74.1939L148.01 75.1181C150.46 79.8198 153.913 83.5403 158.359 86.261L159.403 84.555ZM149.789 74.2038C147.565 69.8173 146.441 64.8236 146.441 59.2H144.441C144.441 65.0964 145.621 70.4067 148.005 75.1082L149.789 74.2038ZM255.44 48.928L256.425 49.1006L256.631 47.928H255.44V48.928ZM253.136 62.08V63.08H253.976L254.121 62.2526L253.136 62.08ZM228.752 62.08V61.08H227.914L227.768 61.9057L228.752 62.08ZM226.832 72.928L225.848 72.7537L225.64 73.928H226.832V72.928ZM254.864 72.928L255.849 73.1036L256.058 71.928H254.864V72.928ZM252.176 88V89H253.014L253.161 88.1756L252.176 88ZM208.4 88L207.415 87.8266L207.209 89H208.4V88ZM219.728 23.68V22.68H218.889L218.743 23.5065L219.728 23.68ZM263.312 23.68L264.298 23.8495L264.499 22.68H263.312V23.68ZM260.72 38.752V39.752H261.563L261.706 38.9215L260.72 38.752ZM232.88 38.752V37.752H232.044L231.896 38.5756L232.88 38.752ZM231.056 48.928L230.072 48.7516L229.861 49.928H231.056V48.928ZM235.664 1.984V0.983997H235.193L234.893 1.34723L235.664 1.984ZM255.152 1.984L256.061 1.56559L255.793 0.983997H255.152V1.984ZM263.024 19.072V20.072H264.586L263.933 18.6536L263.024 19.072ZM248.912 19.072L247.997 19.475L248.26 20.072H248.912V19.072ZM244.304 8.608L245.219 8.20498L244.553 6.69271L243.523 7.98418L244.304 8.608ZM235.952 19.072V20.072H236.434L236.734 19.6958L235.952 19.072ZM221.552 19.072L220.781 18.4352L219.429 20.072H221.552V19.072ZM254.455 48.7554L252.151 61.9074L254.121 62.2526L256.425 49.1006L254.455 48.7554ZM253.136 61.08H228.752V63.08H253.136V61.08ZM227.768 61.9057L225.848 72.7537L227.817 73.1023L229.737 62.2543L227.768 61.9057ZM226.832 73.928H254.864V71.928H226.832V73.928ZM253.88 72.7524L251.192 87.8244L253.161 88.1756L255.849 73.1036L253.88 72.7524ZM252.176 87H208.4V89H252.176V87ZM209.385 88.1734L220.713 23.8534L218.743 23.5065L207.415 87.8266L209.385 88.1734ZM219.728 24.68H263.312V22.68H219.728V24.68ZM262.327 23.5105L259.735 38.5825L261.706 38.9215L264.298 23.8495L262.327 23.5105ZM260.72 37.752H232.88V39.752H260.72V37.752ZM231.896 38.5756L230.072 48.7516L232.041 49.1044L233.865 38.9284L231.896 38.5756ZM231.056 49.928H255.44V47.928H231.056V49.928ZM235.664 2.984H255.152V0.983997H235.664V2.984ZM254.244 2.40241L262.116 19.4904L263.933 18.6536L256.061 1.56559L254.244 2.40241ZM263.024 18.072H248.912V20.072H263.024V18.072ZM249.827 18.669L245.219 8.20498L243.389 9.01102L247.997 19.475L249.827 18.669ZM243.523 7.98418L235.171 18.4482L236.734 19.6958L245.086 9.23182L243.523 7.98418ZM235.952 18.072H221.552V20.072H235.952V18.072ZM222.323 19.7088L236.435 2.62077L234.893 1.34723L220.781 18.4352L222.323 19.7088ZM290.323 68.704L290.942 67.9185L290.108 67.2612L289.502 68.1335L290.323 68.704ZM297.811 73.312L297.372 74.2104L297.384 74.2162L297.396 74.2217L297.811 73.312ZM313.268 74.08L313.812 74.9184L313.827 74.9091L313.841 74.8992L313.268 74.08ZM313.94 67.264L313.205 67.9423L313.218 67.957L313.232 67.9711L313.94 67.264ZM309.427 64.48L309.843 63.5705L309.828 63.5636L309.813 63.5572L309.427 64.48ZM300.691 60.832L300.303 61.7534L300.306 61.7548L300.691 60.832ZM291.379 53.632L290.555 54.1985L291.379 53.632ZM291.284 31.648L290.465 31.0734L290.461 31.0793L290.457 31.0852L291.284 31.648ZM299.923 24.736L299.522 23.8202L299.923 24.736ZM325.651 24.16L325.358 25.1161L325.368 25.1189L325.377 25.1215L325.651 24.16ZM336.116 29.056L336.945 29.615L337.488 28.8097L336.698 28.2435L336.116 29.056ZM327.572 41.728L326.988 42.54L327.825 43.1414L328.401 42.287L327.572 41.728ZM320.467 37.984L320.084 38.9077L320.098 38.9133L320.112 38.9185L320.467 37.984ZM308.18 37.024L308.512 37.967L308.537 37.9584L308.56 37.9487L308.18 37.024ZM305.78 38.752L306.588 39.3402L306.6 39.3237L306.612 39.3067L305.78 38.752ZM305.971 44.128L305.203 44.7682L305.232 44.803L305.264 44.8351L305.971 44.128ZM309.332 46.24L308.915 47.1491L308.926 47.1542L308.938 47.1591L309.332 46.24ZM317.396 49.696L317.791 48.7775L317.789 48.7769L317.396 49.696ZM328.243 57.088L327.497 57.7534L327.504 57.7615L328.243 57.088ZM329.012 79.936L328.187 79.3695L328.183 79.3754L328.179 79.3813L329.012 79.936ZM293.012 87.232L292.687 88.1779L292.7 88.1821L293.012 87.232ZM281.587 81.28L280.766 80.7095L280.216 81.5014L280.987 82.08L281.587 81.28ZM289.705 69.4895C291.882 71.2048 294.44 72.777 297.372 74.2104L298.251 72.4136C295.423 71.031 292.989 69.5312 290.942 67.9185L289.705 69.4895ZM297.396 74.2217C300.463 75.6219 303.613 76.328 306.836 76.328V74.328C303.914 74.328 301.048 73.69 298.227 72.4023L297.396 74.2217ZM306.836 76.328C309.881 76.328 312.276 75.917 313.812 74.9184L312.723 73.2416C311.699 73.907 309.806 74.328 306.836 74.328V76.328ZM313.841 74.8992C315.383 73.8199 316.188 72.301 316.188 70.432H314.188C314.188 71.635 313.712 72.548 312.694 73.2608L313.841 74.8992ZM316.188 70.432C316.188 68.9125 315.684 67.5938 314.647 66.5569L313.232 67.9711C313.859 68.5982 314.188 69.3915 314.188 70.432H316.188ZM314.674 66.5857C313.761 65.5958 312.095 64.6 309.843 63.5705L309.012 65.3895C311.24 66.408 312.582 67.2682 313.205 67.9423L314.674 66.5857ZM309.813 63.5572L301.077 59.9092L300.306 61.7548L309.042 65.4028L309.813 63.5572ZM301.08 59.9106C297.126 58.2424 294.188 55.9519 292.204 53.0655L290.555 54.1985C292.795 57.4561 296.065 59.9656 300.303 61.7534L301.08 59.9106ZM292.204 53.0655C290.221 50.1818 289.211 46.7376 289.211 42.688H287.211C287.211 47.0864 288.314 50.9382 290.555 54.1985L292.204 53.0655ZM289.211 42.688C289.211 38.4967 290.196 35.0226 292.11 32.2108L290.457 31.0852C288.275 34.2894 287.211 38.1753 287.211 42.688H289.211ZM292.102 32.2226C294.1 29.3768 296.83 27.1847 300.325 25.6518L299.522 23.8202C295.721 25.4873 292.691 27.9032 290.465 31.0734L292.102 32.2226ZM300.325 25.6518C303.825 24.1168 307.876 23.336 312.5 23.336V21.336C307.651 21.336 303.318 22.1552 299.522 23.8202L300.325 25.6518ZM312.5 23.336C317.215 23.336 321.499 23.9333 325.358 25.1161L325.945 23.2039C321.868 21.9546 317.384 21.336 312.5 21.336V23.336ZM325.377 25.1215C329.315 26.2468 332.695 27.8332 335.533 29.8685L336.698 28.2435C333.648 26.0548 330.052 24.3772 325.926 23.1985L325.377 25.1215ZM335.286 28.497L326.742 41.169L328.401 42.287L336.945 29.615L335.286 28.497ZM328.155 40.916C326.028 39.387 323.581 38.1001 320.823 37.0495L320.112 38.9185C322.73 39.9159 325.019 41.125 326.988 42.54L328.155 40.916ZM320.851 37.0603C318.103 35.9212 315.221 35.352 312.211 35.352V37.352C314.962 37.352 317.584 37.8708 320.084 38.9077L320.851 37.0603ZM312.211 35.352C310.525 35.352 309.043 35.5872 307.799 36.0993L308.56 37.9487C309.492 37.5648 310.698 37.352 312.211 37.352V35.352ZM307.847 36.081C306.606 36.5187 305.607 37.2084 304.947 38.1973L306.612 39.3067C306.976 38.7596 307.577 38.2972 308.512 37.967L307.847 36.081ZM304.971 38.1638C304.331 39.044 304.012 40.0513 304.012 41.152H306.012C306.012 40.4607 306.204 39.868 306.588 39.3402L304.971 38.1638ZM304.012 41.152C304.012 42.5494 304.383 43.7839 305.203 44.7682L306.74 43.4878C306.28 42.9361 306.012 42.1866 306.012 41.152H304.012ZM305.264 44.8351C306.091 45.6619 307.335 46.4251 308.915 47.1491L309.748 45.3309C308.256 44.6469 307.26 44.0021 306.679 43.4209L305.264 44.8351ZM308.938 47.1591L317.002 50.6151L317.789 48.7769L309.725 45.3209L308.938 47.1591ZM317 50.6145C321.509 52.5559 324.993 54.9438 327.497 57.7534L328.99 56.4226C326.246 53.3442 322.498 50.8041 317.791 48.7775L317 50.6145ZM327.504 57.7615C329.917 60.41 331.18 64.0808 331.18 68.896H333.18C333.18 63.7272 331.818 59.526 328.983 56.4145L327.504 57.7615ZM331.18 68.896C331.18 73.0131 330.168 76.4883 328.187 79.3695L329.836 80.5025C332.079 77.2397 333.18 73.3549 333.18 68.896H331.18ZM328.179 79.3813C326.249 82.2773 323.528 84.4946 319.976 86.0257L320.767 87.8623C324.639 86.1934 327.678 83.7387 329.844 80.4907L328.179 79.3813ZM319.976 86.0257C316.416 87.5601 312.172 88.344 307.22 88.344V90.344C312.379 90.344 316.903 89.5279 320.767 87.8623L319.976 86.0257ZM307.22 88.344C302.126 88.344 297.497 87.6523 293.323 86.2819L292.7 88.1821C297.102 89.6277 301.945 90.344 307.22 90.344V88.344ZM293.336 86.2862C289.138 84.8451 285.425 82.9079 282.188 80.48L280.987 82.08C284.406 84.6441 288.309 86.6749 292.687 88.1778L293.336 86.2862ZM282.409 81.8505L291.145 69.2745L289.502 68.1335L280.766 80.7095L282.409 81.8505ZM353.883 85.696L353.38 86.5602L353.388 86.5647L353.395 86.5689L353.883 85.696ZM343.899 75.136L343.012 75.5981L343.899 75.136ZM343.227 44.32L342.313 43.915L342.308 43.9261L343.227 44.32ZM351.387 32.704L350.7 31.977L351.387 32.704ZM363.195 25.12L363.571 26.0466L363.578 26.0439L363.195 25.12ZM392.475 26.08L391.972 26.9443L391.982 26.9498L392.475 26.08ZM402.459 36.544L401.572 37.0062L401.577 37.0159L402.459 36.544ZM403.131 67.36L404.045 67.7649L404.047 67.7601L403.131 67.36ZM394.971 78.976L395.658 79.703L394.971 78.976ZM383.067 86.656L383.443 87.5826L383.45 87.5799L383.067 86.656ZM368.571 40L369.008 40.8992L368.571 40ZM362.331 44.704L361.589 44.0337L361.583 44.0404L361.577 44.0472L362.331 44.704ZM358.203 51.424L357.278 51.0444L357.274 51.0547L357.27 51.065L358.203 51.424ZM362.811 71.488L362.269 72.3283L362.275 72.3322L362.281 72.336L362.811 71.488ZM377.883 71.68L378.32 72.5792L377.883 71.68ZM384.027 66.976L383.285 66.3057L383.279 66.3124L383.273 66.3192L384.027 66.976ZM388.155 60.256L387.222 59.897V59.897L388.155 60.256ZM388.059 45.376L387.154 45.8018V45.8018L388.059 45.376ZM383.547 40.192L384.089 39.3517L383.547 40.192ZM387.195 2.08V1.08H386.73L386.43 1.4356L387.195 2.08ZM404.091 2.08L404.804 2.78107L406.477 1.08H404.091V2.08ZM387.291 19.168V20.168H387.71L388.004 19.8691L387.291 19.168ZM372.795 19.168L372.03 18.5236L370.645 20.168H372.795V19.168ZM369.051 88.344C363.435 88.344 358.552 87.1596 354.371 84.8231L353.395 86.5689C357.918 89.0964 363.147 90.344 369.051 90.344V88.344ZM354.386 84.8318C350.267 82.4341 347.069 79.056 344.786 74.6739L343.012 75.5981C345.465 80.304 348.923 83.9659 353.38 86.5602L354.386 84.8318ZM344.786 74.6739C342.506 70.2983 341.347 65.1189 341.347 59.104H339.347C339.347 65.3771 340.556 70.8857 343.012 75.5981L344.786 74.6739ZM341.347 59.104C341.347 53.8494 342.285 49.0572 344.146 44.7139L342.308 43.9261C340.329 48.5428 339.347 53.6066 339.347 59.104H341.347ZM344.141 44.7249C346.073 40.3625 348.717 36.601 352.074 33.431L350.7 31.977C347.145 35.335 344.349 39.3175 342.313 43.9151L344.141 44.7249ZM352.074 33.431C355.439 30.2525 359.27 27.7921 363.571 26.0466L362.819 24.1934C358.288 26.0319 354.247 28.6275 350.7 31.977L352.074 33.431ZM363.578 26.0439C367.933 24.2396 372.538 23.336 377.403 23.336V21.336C372.284 21.336 367.417 22.2884 362.812 24.1961L363.578 26.0439ZM377.403 23.336C383.015 23.336 387.86 24.5506 391.972 26.9442L392.978 25.2157C388.514 22.6174 383.311 21.336 377.403 21.336V23.336ZM391.982 26.9498C396.095 29.2828 399.29 32.626 401.572 37.0061L403.346 36.0819C400.892 31.374 397.431 27.7412 392.968 25.2102L391.982 26.9498ZM401.577 37.0159C403.918 41.3893 405.107 46.5651 405.107 52.576H407.107C407.107 46.2989 405.864 40.7867 403.341 36.0721L401.577 37.0159ZM405.107 52.576C405.107 57.7603 404.14 62.5509 402.215 66.9599L404.047 67.7601C406.09 63.0811 407.107 58.0157 407.107 52.576H405.107ZM402.217 66.9551C400.285 71.3175 397.641 75.079 394.284 78.249L395.658 79.703C399.213 76.345 402.009 72.3625 404.045 67.7649L402.217 66.9551ZM394.284 78.249C390.919 81.4277 387.054 83.9218 382.684 85.7321L383.45 87.5799C388.04 85.6782 392.111 83.0523 395.658 79.703L394.284 78.249ZM382.691 85.7294C378.398 87.4713 373.855 88.344 369.051 88.344V90.344C374.103 90.344 378.904 89.4247 383.443 87.5826L382.691 85.7294ZM376.251 37.272C373.354 37.272 370.644 37.8795 368.134 39.1008L369.008 40.8992C371.234 39.8165 373.644 39.272 376.251 39.272V37.272ZM368.134 39.1008C365.648 40.3097 363.465 41.9561 361.589 44.0337L363.073 45.3743C364.781 43.4839 366.758 41.9943 369.008 40.8992L368.134 39.1008ZM361.577 44.0472C359.775 46.1157 358.342 48.4499 357.278 51.0444L359.128 51.8036C360.112 49.4061 361.431 47.2602 363.085 45.3608L361.577 44.0472ZM357.27 51.065C356.266 53.6733 355.763 56.3549 355.763 59.104H357.763C357.763 56.6051 358.22 54.1667 359.136 51.783L357.27 51.065ZM355.763 59.104C355.763 61.8616 356.302 64.4088 357.394 66.7298L359.204 65.8782C358.248 63.8472 357.763 61.5944 357.763 59.104H355.763ZM357.394 66.7298C358.496 69.0719 360.125 70.9448 362.269 72.3283L363.353 70.6477C361.53 69.4712 360.15 67.8881 359.204 65.8782L357.394 66.7298ZM362.281 72.336C364.513 73.7309 367.135 74.408 370.107 74.408V72.408C367.447 72.408 365.205 71.8051 363.341 70.64L362.281 72.336ZM370.107 74.408C373.064 74.408 375.807 73.8021 378.32 72.5792L377.446 70.7808C375.223 71.8619 372.782 72.408 370.107 72.408V74.408ZM378.32 72.5792C380.809 71.3685 382.965 69.7181 384.781 67.6328L383.273 66.3192C381.633 68.2019 379.693 69.6875 377.446 70.7808L378.32 72.5792ZM384.769 67.6463C386.643 65.5711 388.084 63.2256 389.088 60.615L387.222 59.897C386.306 62.2784 384.995 64.4129 383.285 66.3057L384.769 67.6463ZM389.088 60.615C390.092 58.0067 390.595 55.3251 390.595 52.576H388.595C388.595 55.0749 388.138 57.5133 387.222 59.897L389.088 60.615ZM390.595 52.576C390.595 49.8184 390.056 47.2712 388.964 44.9502L387.154 45.8018C388.11 47.8328 388.595 50.0856 388.595 52.576H390.595ZM388.964 44.9502C387.862 42.6081 386.233 40.7352 384.089 39.3517L383.005 41.0323C384.829 42.2088 386.208 43.7919 387.154 45.8018L388.964 44.9502ZM384.089 39.3517C381.911 37.9466 379.281 37.272 376.251 37.272V39.272C378.981 39.272 381.215 39.8774 383.005 41.0323L384.089 39.3517ZM387.195 3.08H404.091V1.08H387.195V3.08ZM403.378 1.37892L386.578 18.4669L388.004 19.8691L404.804 2.78107L403.378 1.37892ZM387.291 18.168H372.795V20.168H387.291V18.168ZM373.56 19.8124L387.96 2.7244L386.43 1.4356L372.03 18.5236L373.56 19.8124ZM443.95 88L442.965 87.8257L442.757 89H443.95V88ZM452.686 38.656L453.67 38.8303L453.878 37.656H452.686V38.656ZM433.966 38.656L432.98 38.4855L432.778 39.656H433.966V38.656ZM436.558 23.68V22.68H435.716L435.572 23.5095L436.558 23.68ZM489.742 23.68L490.727 23.8505L490.93 22.68H489.742V23.68ZM487.15 38.656V39.656H487.992L488.135 38.8265L487.15 38.656ZM468.43 38.656V37.656H467.591L467.445 38.4817L468.43 38.656ZM459.694 88V89H460.532L460.678 88.1743L459.694 88ZM444.934 88.1743L453.67 38.8303L451.701 38.4817L442.965 87.8257L444.934 88.1743ZM452.686 37.656H433.966V39.656H452.686V37.656ZM434.951 38.8265L437.543 23.8505L435.572 23.5095L432.98 38.4855L434.951 38.8265ZM436.558 24.68H489.742V22.68H436.558V24.68ZM488.756 23.5095L486.164 38.4855L488.135 38.8265L490.727 23.8505L488.756 23.5095ZM487.15 37.656H468.43V39.656H487.15V37.656ZM467.445 38.4817L458.709 87.8257L460.678 88.1743L469.414 38.8303L467.445 38.4817ZM459.694 87H443.95V89H459.694V87ZM534.721 48.928L535.706 49.1006L535.912 47.928H534.721V48.928ZM532.417 62.08V63.08H533.258L533.403 62.2526L532.417 62.08ZM508.034 62.08V61.08H507.195L507.049 61.9057L508.034 62.08ZM506.113 72.928L505.129 72.7537L504.921 73.928H506.113V72.928ZM534.146 72.928L535.13 73.1036L535.34 71.928H534.146V72.928ZM531.458 88V89H532.295L532.442 88.1756L531.458 88ZM487.681 88L486.697 87.8266L486.49 89H487.681V88ZM499.009 23.68V22.68H498.17L498.025 23.5065L499.009 23.68ZM542.594 23.68L543.579 23.8495L543.78 22.68H542.594V23.68ZM540.002 38.752V39.752H540.844L540.987 38.9215L540.002 38.752ZM512.161 38.752V37.752H511.325L511.177 38.5756L512.161 38.752ZM510.337 48.928L509.353 48.7516L509.142 49.928H510.337V48.928ZM533.737 48.7554L531.432 61.9074L533.403 62.2526L535.706 49.1006L533.737 48.7554ZM532.417 61.08H508.034V63.08H532.417V61.08ZM507.049 61.9057L505.129 72.7537L507.098 73.1023L509.018 62.2543L507.049 61.9057ZM506.113 73.928H534.146V71.928H506.113V73.928ZM533.161 72.7524L530.473 87.8244L532.442 88.1756L535.13 73.1036L533.161 72.7524ZM531.458 87H487.681V89H531.458V87ZM488.666 88.1734L499.994 23.8534L498.025 23.5065L486.697 87.8266L488.666 88.1734ZM499.009 24.68H542.594V22.68H499.009V24.68ZM541.608 23.5105L539.016 38.5825L540.987 38.9215L543.579 23.8495L541.608 23.5105ZM540.002 37.752H512.161V39.752H540.002V37.752ZM511.177 38.5756L509.353 48.7516L511.322 49.1044L513.146 38.9284L511.177 38.5756ZM510.337 49.928H534.721V47.928H510.337V49.928ZM554.135 23.68V22.68H553.295L553.15 23.5065L554.135 23.68ZM572.086 23.68L573.066 23.4785L572.902 22.68H572.086V23.68ZM581.015 67.072L580.035 67.2735L580.577 69.9096L581.888 67.559L581.015 67.072ZM605.206 23.68V22.68H604.619L604.333 23.193L605.206 23.68ZM624.023 23.68L625.007 23.8534L625.214 22.68H624.023V23.68ZM612.695 88V89H613.534L613.679 88.1734L612.695 88ZM597.143 88L596.157 87.8278L595.952 89H597.143V88ZM603.286 52.864L604.272 53.0362L602.41 52.3826L603.286 52.864ZM583.99 88V89H584.582L584.867 88.4814L583.99 88ZM571.607 88L570.626 88.1956L570.786 89H571.607V88ZM564.599 52.864L565.579 52.6684L563.614 52.6891L564.599 52.864ZM558.359 88V89H559.197L559.343 88.1749L558.359 88ZM542.807 88L541.822 87.8266L541.615 89H542.807V88ZM554.135 24.68H572.086V22.68H554.135V24.68ZM571.107 23.8815L580.035 67.2735L581.994 66.8705L573.066 23.4785L571.107 23.8815ZM581.888 67.559L606.08 24.167L604.333 23.193L580.141 66.585L581.888 67.559ZM605.206 24.68H624.023V22.68H605.206V24.68ZM623.038 23.5065L611.71 87.8266L613.679 88.1734L625.007 23.8534L623.038 23.5065ZM612.695 87H597.143V89H612.695V87ZM598.128 88.1722L604.272 53.0362L602.301 52.6917L596.157 87.8278L598.128 88.1722ZM602.41 52.3826L583.114 87.5186L584.867 88.4814L604.163 53.3454L602.41 52.3826ZM583.99 87H571.607V89H583.99V87ZM572.587 87.8044L565.579 52.6684L563.618 53.0596L570.626 88.1956L572.587 87.8044ZM563.614 52.6891L557.374 87.8251L559.343 88.1749L565.583 53.0389L563.614 52.6891ZM558.359 87H542.807V89H558.359V87ZM543.791 88.1734L555.119 23.8534L553.15 23.5065L541.822 87.8266L543.791 88.1734ZM48.504 184L47.5124 184.129L47.626 185H48.504V184ZM46.776 170.752L47.7676 170.623L47.654 169.752H46.776V170.752ZM24.408 170.752V169.752H23.7778L23.5059 170.321L24.408 170.752ZM18.072 184V185H18.7022L18.9741 184.431L18.072 184ZM1.656 184L0.762642 183.551L0.0336428 185H1.656V184ZM34.008 119.68V118.68H33.3916L33.1146 119.231L34.008 119.68ZM54.936 119.68L55.9246 119.529L55.7953 118.68H54.936V119.68ZM64.728 184V185H65.8918L65.7166 183.85L64.728 184ZM45.048 157.408V158.408H46.1896L46.0393 157.276L45.048 157.408ZM41.976 134.272L42.9673 134.14L42.5267 130.822L41.0749 133.838L41.976 134.272ZM30.84 157.408L29.9389 156.974L29.2489 158.408H30.84V157.408ZM49.4956 183.871L47.7676 170.623L45.7844 170.881L47.5124 184.129L49.4956 183.871ZM46.776 169.752H24.408V171.752H46.776V169.752ZM23.5059 170.321L17.1699 183.569L18.9741 184.431L25.3101 171.183L23.5059 170.321ZM18.072 183H1.656V185H18.072V183ZM2.54936 184.449L34.9014 120.129L33.1146 119.231L0.762642 183.551L2.54936 184.449ZM34.008 120.68H54.936V118.68H34.008V120.68ZM53.9474 119.831L63.7394 184.15L65.7166 183.85L55.9246 119.529L53.9474 119.831ZM64.728 183H48.504V185H64.728V183ZM46.0393 157.276L42.9673 134.14L40.9847 134.404L44.0567 157.54L46.0393 157.276ZM41.0749 133.838L29.9389 156.974L31.7411 157.842L42.8771 134.706L41.0749 133.838ZM30.84 158.408H45.048V156.408H30.84V158.408ZM150.884 174.784L151.558 175.523L151.807 175.296L151.868 174.964L150.884 174.784ZM138.788 182.56L139.176 183.482L139.182 183.479L138.788 182.56ZM107.492 181.408L106.961 182.255L106.97 182.261L107.492 181.408ZM97.7962 170.56L96.8894 170.982L96.8943 170.992L97.7962 170.56ZM97.3163 141.088L96.3896 140.712L97.3163 141.088ZM104.9 129.376L105.621 130.069L104.9 129.376ZM116.324 121.408L115.926 120.491L115.921 120.493L116.324 121.408ZM142.82 120.448L142.479 121.388L142.484 121.39L142.82 120.448ZM151.94 125.536L152.586 124.773L151.94 125.536ZM157.796 132.352L158.342 133.19L159.137 132.672L158.662 131.851L157.796 132.352ZM143.78 141.472L142.896 141.94L143.408 142.907L144.326 142.31L143.78 141.472ZM138.596 136.096L138.064 136.943L138.075 136.949L138.596 136.096ZM122.756 135.616L123.172 136.526L123.183 136.52L122.756 135.616ZM116.804 139.936L116.072 139.255L116.066 139.261L116.06 139.268L116.804 139.936ZM112.868 146.464L111.935 146.105L111.931 146.116L111.927 146.126L112.868 146.464ZM112.964 162.496L112.041 162.881L112.046 162.891L112.05 162.902L112.964 162.496ZM133.7 168.256L133.312 167.334L133.305 167.337L133.298 167.34L133.7 168.256ZM137.06 166.528L137.59 167.376L137.966 167.141L138.045 166.705L137.06 166.528ZM138.404 159.04L139.389 159.217L139.6 158.04H138.404V159.04ZM126.308 159.04L125.325 158.859L125.107 160.04H126.308V159.04ZM128.516 147.04V146.04H127.683L127.533 146.859L128.516 147.04ZM155.972 147.04L156.956 147.22L157.172 146.04H155.972V147.04ZM150.211 174.045C146.71 177.233 142.772 179.765 138.394 181.641L139.182 183.479C143.764 181.515 147.891 178.863 151.558 175.523L150.211 174.045ZM138.401 181.638C134.13 183.433 129.178 184.344 123.524 184.344V186.344C129.391 186.344 134.615 185.399 139.176 183.482L138.401 181.638ZM123.524 184.344C117.259 184.344 112.108 183.06 108.014 180.555L106.97 182.261C111.453 185.004 116.99 186.344 123.524 186.344V184.344ZM108.023 180.561C103.895 177.973 100.792 174.501 98.6982 170.128L96.8943 170.992C99.1525 175.707 102.513 179.467 106.961 182.255L108.023 180.561ZM98.7031 170.139C96.6603 165.743 95.6283 160.77 95.6283 155.2H93.6283C93.6283 161.022 94.7082 166.288 96.8894 170.981L98.7031 170.139ZM95.6283 155.2C95.6283 150.331 96.5016 145.755 98.2429 141.464L96.3896 140.712C94.5469 145.253 93.6283 150.085 93.6283 155.2H95.6283ZM98.2429 141.464C99.9876 137.164 102.446 133.369 105.621 130.069L104.18 128.683C100.826 132.167 98.2289 136.18 96.3896 140.712L98.2429 141.464ZM105.621 130.069C108.794 126.772 112.494 124.191 116.728 122.323L115.921 120.493C111.451 122.465 107.535 125.196 104.18 128.683L105.621 130.069ZM116.723 122.325C121.004 120.464 125.667 119.528 130.724 119.528V117.528C125.414 117.528 120.477 118.512 115.926 120.491L116.723 122.325ZM130.724 119.528C135.176 119.528 139.089 120.155 142.479 121.388L143.162 119.508C139.512 118.181 135.361 117.528 130.724 117.528V119.528ZM142.484 121.39C145.973 122.636 148.904 124.277 151.294 126.299L152.586 124.773C149.985 122.571 146.835 120.82 143.157 119.506L142.484 121.39ZM151.294 126.299C153.717 128.349 155.589 130.535 156.931 132.853L158.662 131.851C157.188 129.305 155.156 126.947 152.586 124.773L151.294 126.299ZM157.251 131.514L143.235 140.634L144.326 142.31L158.342 133.19L157.251 131.514ZM144.664 141.004C143.42 138.654 141.56 136.735 139.118 135.243L138.075 136.949C140.241 138.273 141.836 139.938 142.896 141.94L144.664 141.004ZM139.128 135.249C136.693 133.718 133.712 132.984 130.244 132.984V134.984C133.432 134.984 136.02 135.658 138.064 136.943L139.128 135.249ZM130.244 132.984C127.417 132.984 124.774 133.557 122.329 134.712L123.183 136.52C125.346 135.499 127.696 134.984 130.244 134.984V132.984ZM122.34 134.707C119.978 135.787 117.887 137.305 116.072 139.255L117.536 140.617C119.177 138.855 121.055 137.493 123.172 136.525L122.34 134.707ZM116.06 139.268C114.309 141.221 112.935 143.504 111.935 146.105L113.802 146.823C114.721 144.432 115.972 142.363 117.549 140.604L116.06 139.268ZM111.927 146.126C110.988 148.742 110.524 151.577 110.524 154.624H112.524C112.524 151.783 112.956 149.178 113.809 146.802L111.927 146.126ZM110.524 154.624C110.524 157.677 111.022 160.435 112.041 162.881L113.887 162.111C112.986 159.949 112.524 157.459 112.524 154.624H110.524ZM112.05 162.902C113.15 165.376 114.81 167.352 117.024 168.804L118.121 167.132C116.238 165.896 114.827 164.224 113.878 162.09L112.05 162.902ZM117.024 168.804C119.272 170.279 122.035 170.984 125.252 170.984V168.984C122.326 168.984 119.969 168.345 118.121 167.132L117.024 168.804ZM125.252 170.984C128.392 170.984 131.345 170.382 134.102 169.172L133.298 167.34C130.807 168.434 128.129 168.984 125.252 168.984V170.984ZM134.088 169.178C135.349 168.647 136.517 168.047 137.59 167.376L136.53 165.68C135.555 166.289 134.483 166.841 133.312 167.334L134.088 169.178ZM138.045 166.705L139.389 159.217L137.42 158.863L136.076 166.351L138.045 166.705ZM138.404 158.04H126.308V160.04H138.404V158.04ZM127.292 159.221L129.5 147.221L127.533 146.859L125.325 158.859L127.292 159.221ZM128.516 148.04H155.972V146.04H128.516V148.04ZM154.989 146.86L149.901 174.604L151.868 174.964L156.956 147.22L154.989 146.86ZM202.441 184L201.45 184.129L201.563 185H202.441V184ZM200.714 170.752L201.705 170.623L201.592 169.752H200.714V170.752ZM178.346 170.752V169.752H177.715L177.443 170.321L178.346 170.752ZM172.01 184V185H172.64L172.912 184.431L172.01 184ZM155.594 184L154.7 183.551L153.971 185H155.594V184ZM187.945 119.68V118.68H187.329L187.052 119.231L187.945 119.68ZM208.874 119.68L209.862 119.529L209.733 118.68H208.874V119.68ZM218.665 184V185H219.829L219.654 183.85L218.665 184ZM198.986 157.408V158.408H200.127L199.977 157.276L198.986 157.408ZM195.913 134.272L196.905 134.14L196.464 130.822L195.012 133.838L195.913 134.272ZM184.777 157.408L183.876 156.974L183.186 158.408H184.777V157.408ZM203.433 183.871L201.705 170.623L199.722 170.881L201.45 184.129L203.433 183.871ZM200.714 169.752H178.346V171.752H200.714V169.752ZM177.443 170.321L171.107 183.569L172.912 184.431L179.248 171.183L177.443 170.321ZM172.01 183H155.594V185H172.01V183ZM156.487 184.449L188.839 120.129L187.052 119.231L154.7 183.551L156.487 184.449ZM187.945 120.68H208.874V118.68H187.945V120.68ZM207.885 119.831L217.677 184.15L219.654 183.85L209.862 119.529L207.885 119.831ZM218.665 183H202.441V185H218.665V183ZM199.977 157.276L196.905 134.14L194.922 134.404L197.994 157.54L199.977 157.276ZM195.012 133.838L183.876 156.974L185.679 157.842L196.815 134.706L195.012 133.838ZM184.777 158.408H198.986V156.408H184.777V158.408ZM238.76 119.68V118.68H237.92L237.775 119.507L238.76 119.68ZM252.775 119.68L253.677 119.247L253.405 118.68H252.775V119.68ZM270.919 157.504L270.018 157.937L271.367 160.748L271.905 157.676L270.919 157.504ZM277.544 119.68V118.68H276.703L276.559 119.507L277.544 119.68ZM293.288 119.68L294.272 119.853L294.479 118.68H293.288V119.68ZM281.96 184V185H282.799L282.944 184.173L281.96 184ZM267.751 184L266.85 184.432L267.122 185H267.751V184ZM249.704 146.368L250.605 145.936L249.258 143.128L248.719 146.195L249.704 146.368ZM243.079 184V185H243.919L244.064 184.173L243.079 184ZM227.432 184L226.447 183.827L226.24 185H227.432V184ZM238.76 120.68H252.775V118.68H238.76V120.68ZM251.874 120.113L270.018 157.937L271.821 157.071L253.677 119.247L251.874 120.113ZM271.905 157.676L278.529 119.853L276.559 119.507L269.934 157.331L271.905 157.676ZM277.544 120.68H293.288V118.68H277.544V120.68ZM292.303 119.507L280.975 183.827L282.944 184.173L294.272 119.853L292.303 119.507ZM281.96 183H267.751V185H281.96V183ZM268.653 183.568L250.605 145.936L248.802 146.8L266.85 184.432L268.653 183.568ZM248.719 146.195L242.095 183.827L244.064 184.173L250.688 146.541L248.719 146.195ZM243.079 183H227.432V185H243.079V183ZM228.416 184.173L239.744 119.853L237.775 119.507L226.447 183.827L228.416 184.173ZM307.103 119.68V118.68H306.264L306.118 119.507L307.103 119.68ZM322.847 119.68L323.832 119.852L324.037 118.68H322.847V119.68ZM318.527 144.448L317.542 144.276L317.338 145.448H318.527V144.448ZM341.567 144.448V145.448H342.405L342.552 144.624L341.567 144.448ZM345.983 119.68V118.68H345.146L344.999 119.504L345.983 119.68ZM361.727 119.68L362.712 119.853L362.919 118.68H361.727V119.68ZM350.399 184V185H351.239L351.384 184.173L350.399 184ZM334.655 184L333.671 183.825L333.462 185H334.655V184ZM339.071 159.136L340.056 159.311L340.264 158.136H339.071V159.136ZM315.935 159.136V158.136H315.097L314.951 158.961L315.935 159.136ZM311.519 184V185H312.357L312.504 184.175L311.519 184ZM295.775 184L294.79 183.827L294.584 185H295.775V184ZM307.103 120.68H322.847V118.68H307.103V120.68ZM321.862 119.508L317.542 144.276L319.512 144.62L323.832 119.852L321.862 119.508ZM318.527 145.448H341.567V143.448H318.527V145.448ZM342.552 144.624L346.968 119.856L344.999 119.504L340.583 144.272L342.552 144.624ZM345.983 120.68H361.727V118.68H345.983V120.68ZM360.742 119.507L349.414 183.827L351.384 184.173L362.712 119.853L360.742 119.507ZM350.399 183H334.655V185H350.399V183ZM335.64 184.175L340.056 159.311L338.087 158.961L333.671 183.825L335.64 184.175ZM339.071 158.136H315.935V160.136H339.071V158.136ZM314.951 158.961L310.535 183.825L312.504 184.175L316.92 159.311L314.951 158.961ZM311.519 183H295.775V185H311.519V183ZM296.76 184.173L308.088 119.853L306.118 119.507L294.79 183.827L296.76 184.173ZM406.066 184L405.075 184.129L405.188 185H406.066V184ZM404.339 170.752L405.33 170.623L405.217 169.752H404.339V170.752ZM381.97 170.752V169.752H381.34L381.068 170.321L381.97 170.752ZM375.634 184V185H376.265L376.537 184.431L375.634 184ZM359.219 184L358.325 183.551L357.596 185H359.219V184ZM391.57 119.68V118.68H390.954L390.677 119.231L391.57 119.68ZM412.499 119.68L413.487 119.529L413.358 118.68H412.499V119.68ZM422.29 184V185H423.454L423.279 183.85L422.29 184ZM402.611 157.408V158.408H403.752L403.602 157.276L402.611 157.408ZM399.539 134.272L400.53 134.14L400.089 130.822L398.637 133.838L399.539 134.272ZM388.402 157.408L387.501 156.974L386.811 158.408H388.402V157.408ZM407.058 183.871L405.33 170.623L403.347 170.881L405.075 184.129L407.058 183.871ZM404.339 169.752H381.97V171.752H404.339V169.752ZM381.068 170.321L374.732 183.569L376.537 184.431L382.873 171.183L381.068 170.321ZM375.634 183H359.219V185H375.634V183ZM360.112 184.449L392.464 120.129L390.677 119.231L358.325 183.551L360.112 184.449ZM391.57 120.68H412.499V118.68H391.57V120.68ZM411.51 119.831L421.302 184.15L423.279 183.85L413.487 119.529L411.51 119.831ZM422.29 183H406.066V185H422.29V183ZM403.602 157.276L400.53 134.14L398.547 134.404L401.619 157.54L403.602 157.276ZM398.637 133.838L387.501 156.974L389.304 157.842L400.44 134.706L398.637 133.838ZM388.402 158.408H402.611V156.408H388.402V158.408ZM484.432 150.688L483.586 150.155L483.584 150.159L484.432 150.688ZM475.025 158.752L474.594 157.849L474.586 157.853L474.577 157.858L475.025 158.752ZM471.281 160.192L471.006 159.23L469.801 159.575L470.404 160.673L471.281 160.192ZM484.337 184V185H486.025L485.213 183.519L484.337 184ZM466.289 184L465.388 184.435L465.661 185H466.289V184ZM455.536 161.728L456.437 161.293L456.164 160.728H455.536V161.728ZM450.737 161.728V160.728H449.898L449.752 161.554L450.737 161.728ZM446.801 184V185H447.639L447.785 184.174L446.801 184ZM431.056 184L430.072 183.827L429.865 185H431.056V184ZM442.384 119.68V118.68H441.545L441.4 119.507L442.384 119.68ZM477.424 122.08L476.991 122.981L476.998 122.984L477.424 122.08ZM485.104 128.896L484.242 129.402L484.247 129.41L485.104 128.896ZM452.944 149.152L451.96 148.976L451.75 150.152H452.944V149.152ZM468.401 146.464L469.095 147.183L469.096 147.183L468.401 146.464ZM469.264 134.656L468.617 135.418L468.637 135.435L468.658 135.451L469.264 134.656ZM455.824 133.024V132.024H454.987L454.84 132.848L455.824 133.024ZM486.697 139.168C486.697 143.21 485.658 146.864 483.586 150.155L485.279 151.221C487.559 147.6 488.697 143.574 488.697 139.168H486.697ZM483.584 150.159C481.587 153.366 478.609 155.935 474.594 157.849L475.455 159.655C479.76 157.601 483.054 154.794 485.281 151.217L483.584 150.159ZM474.577 157.858C473.485 158.404 472.295 158.862 471.006 159.23L471.555 161.154C472.954 160.754 474.26 160.252 475.472 159.646L474.577 157.858ZM470.404 160.673L483.46 184.481L485.213 183.519L472.157 159.711L470.404 160.673ZM484.337 183H466.289V185H484.337V183ZM467.189 183.565L456.437 161.293L454.636 162.163L465.388 184.435L467.189 183.565ZM455.536 160.728H450.737V162.728H455.536V160.728ZM449.752 161.554L445.816 183.826L447.785 184.174L451.721 161.902L449.752 161.554ZM446.801 183H431.056V185H446.801V183ZM432.041 184.173L443.369 119.853L441.4 119.507L430.072 183.827L432.041 184.173ZM442.384 120.68H465.04V118.68H442.384V120.68ZM465.04 120.68C469.866 120.68 473.836 121.464 476.991 122.981L477.858 121.179C474.357 119.496 470.071 118.68 465.04 118.68V120.68ZM476.998 122.984C480.227 124.507 482.626 126.649 484.242 129.402L485.967 128.39C484.127 125.255 481.406 122.853 477.851 121.176L476.998 122.984ZM484.247 129.41C485.866 132.109 486.697 135.348 486.697 139.168H488.697C488.697 135.052 487.799 131.443 485.962 128.382L484.247 129.41ZM452.944 150.152H460.913V148.152H452.944V150.152ZM460.913 150.152C464.248 150.152 467.014 149.193 469.095 147.183L467.706 145.745C466.075 147.319 463.849 148.152 460.913 148.152V150.152ZM469.096 147.183C471.222 145.127 472.281 142.527 472.281 139.456H470.281C470.281 142.017 469.419 144.089 467.705 145.745L469.096 147.183ZM472.281 139.456C472.281 137.066 471.532 135.126 469.871 133.861L468.658 135.451C469.685 136.234 470.281 137.494 470.281 139.456H472.281ZM469.912 133.894C468.385 132.596 466.262 132.024 463.697 132.024V134.024C465.995 134.024 467.584 134.54 468.617 135.418L469.912 133.894ZM463.697 132.024H455.824V134.024H463.697V132.024ZM454.84 132.848L451.96 148.976L453.929 149.328L456.809 133.2L454.84 132.848ZM497.343 163.072L496.351 162.945L496.206 164.072H497.343V163.072ZM502.911 119.68V118.68H502.031L501.919 119.553L502.911 119.68ZM518.751 119.68L519.727 119.898L519.999 118.68H518.751V119.68ZM509.055 163.072V164.072H509.856L510.031 163.29L509.055 163.072ZM494.175 183.232L493.452 183.923L493.46 183.931L493.468 183.939L494.175 183.232ZM493.407 172.576L494.261 173.096L493.407 172.576ZM496.959 169.12L497.451 169.991L497.465 169.983L497.479 169.974L496.959 169.12ZM507.039 169.984L506.301 170.658L506.316 170.675L506.332 170.691L507.039 169.984ZM507.807 180.544L506.943 180.04L506.936 180.052L507.807 180.544ZM504.351 184L503.859 183.129L503.845 183.137L503.831 183.146L504.351 184ZM498.335 163.199L503.903 119.807L501.919 119.553L496.351 162.945L498.335 163.199ZM502.911 120.68H518.751V118.68H502.911V120.68ZM517.775 119.462L508.079 162.854L510.031 163.29L519.727 119.898L517.775 119.462ZM509.055 162.072H497.343V164.072H509.055V162.072ZM499.551 184.344C497.613 184.344 496.084 183.727 494.882 182.525L493.468 183.939C495.082 185.553 497.137 186.344 499.551 186.344V184.344ZM494.898 182.541C493.686 181.274 493.063 179.674 493.063 177.664H491.063C491.063 180.134 491.848 182.246 493.452 183.923L494.898 182.541ZM493.063 177.664C493.063 175.906 493.471 174.394 494.261 173.096L492.553 172.056C491.551 173.702 491.063 175.582 491.063 177.664H493.063ZM494.261 173.096C495.07 171.767 496.131 170.737 497.451 169.991L496.467 168.249C494.843 169.167 493.536 170.441 492.553 172.056L494.261 173.096ZM497.479 169.974C498.794 169.174 500.214 168.776 501.759 168.776V166.776C499.848 166.776 498.068 167.274 496.439 168.266L497.479 169.974ZM501.759 168.776C503.683 168.776 505.165 169.414 506.301 170.658L507.777 169.31C506.225 167.61 504.187 166.776 501.759 166.776V168.776ZM506.332 170.691C507.528 171.887 508.151 173.445 508.151 175.456H510.151C510.151 172.987 509.366 170.897 507.746 169.277L506.332 170.691ZM508.151 175.456C508.151 177.143 507.746 178.664 506.943 180.04L508.671 181.048C509.66 179.352 510.151 177.481 510.151 175.456H508.151ZM506.936 180.052C506.194 181.366 505.173 182.387 503.859 183.129L504.843 184.871C506.473 183.949 507.756 182.666 508.678 181.036L506.936 180.052ZM503.831 183.146C502.516 183.946 501.096 184.344 499.551 184.344V186.344C501.462 186.344 503.242 185.846 504.871 184.854L503.831 183.146Z" fill="#949494" mask="url(#path-1-outside-1_310_201)"/>
</g>
</svg>
