<svg width="208" height="80" viewBox="0 0 208 80" fill="none" xmlns="http://www.w3.org/2000/svg">
<g clip-path="url(#clip0_310_204)">
<path d="M132.367 71.9862H137.772V79.7232H139.903V71.9862H145.308V70.1799H132.367V71.9862Z" fill="#231F20"/>
<path d="M129.924 70.1799H127.799V79.7232H129.924V70.1799Z" fill="#231F20"/>
<path d="M202.879 70.2284H195.093V79.7578H197.218V72.0346H202.374C204.381 72.0346 205.64 72.7751 205.64 75.0173V79.7578H207.765V74.7474C207.765 72.2076 206.305 70.2284 202.872 70.2284" fill="#231F20"/>
<path d="M187.474 69.045H190.602C190.955 69.045 191.266 68.7336 191.266 68.3668C191.266 68 190.955 67.6747 190.602 67.6747H187.474C187.086 67.6747 186.782 67.9862 186.782 68.3668C186.782 68.7474 187.093 69.045 187.474 69.045Z" fill="#231F20"/>
<path d="M156.92 75.9793C159.869 75.91 160.83 75.128 160.83 73.1142C160.83 71.2941 159.529 70.2215 157.329 70.2215H147.744V79.7509H149.869V72.0277H157.343C158.187 72.0277 158.63 72.4083 158.63 73.1626C158.63 73.827 158.422 74.4706 157.045 74.4291H151.668V74.9827L158.228 79.7232H161.315L155.862 75.9862H156.914L156.92 75.9793Z" fill="#231F20"/>
<path d="M172.512 70.0208C171.862 69.9931 171.204 69.9792 170.547 69.9792C169.426 69.9792 168.699 70.0208 168.692 70.0208H168.657C167.107 70.0692 165.792 70.5882 164.844 71.5087C163.938 72.3945 163.439 73.6263 163.439 74.9758V74.9896C163.439 77.8824 165.543 79.8754 168.671 79.9516C169.322 79.9792 169.979 79.9931 170.637 79.9931C171.758 79.9931 172.484 79.9516 172.491 79.9516H172.526C174.076 79.9031 175.391 79.3841 176.339 78.4637C177.246 77.5779 177.744 76.346 177.744 74.9965V74.9827C177.744 72.1453 175.64 70.1523 172.505 70.0208M175.481 74.9619C175.474 76.8028 174.277 77.9931 172.36 78.0692H172.277C172.159 78.0831 171.709 78.1107 170.74 78.1107C170.09 78.1107 169.467 78.0969 168.886 78.0692H168.851C166.914 78.0208 165.709 76.8235 165.709 74.955C165.709 73.0865 166.907 71.91 168.83 71.827H168.914C168.914 71.827 169.723 71.7855 170.817 71.7855C171.433 71.7855 171.696 71.7993 172.221 71.8201H172.305C174.298 71.917 175.481 73.0796 175.481 74.9343V74.9481V74.9619Z" fill="#231F20"/>
<path d="M180.512 79.7509H192.125V77.9516H182.644V75.8062H190.955V74.083H182.644V72.0277H192.125V70.2284H180.512V79.7509Z" fill="#231F20"/>
<path d="M182.035 69.045H185.149C185.522 69.045 185.827 68.7336 185.827 68.3668C185.827 68 185.516 67.6747 185.149 67.6747H182.035C181.647 67.6747 181.343 67.9862 181.343 68.3668C181.343 68.7474 181.654 69.045 182.035 69.045Z" fill="#231F20"/>
<path d="M116.664 70.2561H116.63C115.114 70.3045 113.82 70.7958 112.893 71.6747C112.007 72.519 111.516 73.6886 111.516 74.9689V74.9827C111.516 77.7301 113.578 79.6194 116.651 79.6886C117.516 79.7232 120.118 79.7301 121.197 79.7301C122.595 79.7301 123.924 79.7301 124.325 79.7163V77.8962C123.73 77.9031 119.204 77.91 118.678 77.91C118.048 77.91 117.412 77.8962 116.844 77.8754C114.962 77.8339 113.744 76.699 113.744 74.9896C113.744 73.2803 114.948 72.1315 116.803 72.0623H116.886C116.886 72.0623 117.675 72.0208 118.747 72.0208C119.045 72.0208 123.695 72.0208 124.325 72.0346V70.2422C123.91 70.2353 123.253 70.2284 122.381 70.2284C119.986 70.2284 116.699 70.263 116.671 70.2699" fill="#231F20"/>
<path d="M46.1315 53.128H35.5986L30.4083 43.1972C27.5502 38.3045 24.7612 31.3841 21.6817 31.3841H15.5086C12.1246 31.3841 9.33564 34.1661 9.33564 37.5571V53.1349H0V37.5571C0 28.9758 6.92041 22.0554 15.5017 22.0554H28.0692C36.2699 22.0554 36.2699 9.64014 28.0692 9.64014H0V0.297577H28.0692C45.0727 0.297577 49.5917 23.8547 33.9377 30.2491L46.1315 53.128Z" fill="#E20613"/>
<path d="M105.654 53.128H96.3252V15.8062C96.3252 11.8962 95.7232 9.33564 93.1626 9.33564C88.872 9.33564 85.038 15.9585 83.3079 18.7405L61.0311 53.128H49.8962L72.173 18.7405C79.8408 6.85121 84.8097 0 95.045 0C101.363 0 105.654 5.86851 105.654 15.8062V53.128Z" fill="#E20613"/>
<path d="M139.439 53.128C124.913 52.9758 113.176 41.2388 113.176 26.7128C113.176 12.1868 124.997 0.297577 139.516 0.297577H158.63V9.6263H139.516C130.111 9.6263 122.512 17.2249 122.512 26.7059C122.512 36.1869 130.111 43.7855 139.516 43.7855H158.63V53.1142H139.439V53.128Z" fill="#E20613"/>
<path d="M188.657 53.128C174.131 52.9758 162.394 41.2388 162.394 26.7128C162.394 12.1868 174.208 0.297577 188.81 0.297577H207.848V9.6263H188.81C179.405 9.6263 171.73 17.2249 171.73 26.7059C171.73 36.1869 179.405 43.7855 188.81 43.7855H207.848V53.1142H188.657V53.128ZM183.087 31.3772V22.0484H200.623V31.3772H183.087Z" fill="#E20613"/>
</g>
<defs>
<clipPath id="clip0_310_204">
<rect width="207.848" height="80" fill="white"/>
</clipPath>
</defs>
</svg>
