<svg width="206" height="46" viewBox="0 0 206 46" fill="none" xmlns="http://www.w3.org/2000/svg">
<g clip-path="url(#clip0_310_72)">
<path d="M83.832 19.5268H92.5321V31.9819H95.9555V19.5268H104.654V16.6257H83.832V19.5268Z" fill="white"/>
<path d="M79.9105 16.6257H76.4871V31.9819H79.9105V16.6257Z" fill="white"/>
<path d="M197.302 16.6978H184.776V32.0299H188.2V19.5973H196.495C199.727 19.5973 201.747 20.7859 201.747 24.3999V32.0299H205.171V23.9721C205.171 19.884 202.817 16.6994 197.302 16.6994" fill="white"/>
<path d="M172.507 14.7947H177.545C178.117 14.7947 178.615 14.2965 178.615 13.7005C178.615 13.1046 178.117 12.584 177.545 12.584H172.507C171.889 12.584 171.389 13.0822 171.389 13.7005C171.389 14.3189 171.889 14.7947 172.507 14.7947Z" fill="white"/>
<path d="M123.339 25.9618C128.078 25.8496 129.635 24.5873 129.635 21.3562C129.635 18.431 127.542 16.6978 124.002 16.6978H108.576V32.0299H111.997V19.5973H124.025C125.38 19.5973 126.094 20.2108 126.094 21.4283C126.094 22.4984 125.756 23.5348 123.549 23.4659H114.898V24.3518L125.452 31.9818H130.42L121.644 25.9634H123.337L123.339 25.9618Z" fill="white"/>
<path d="M148.435 16.3711C147.394 16.3278 146.328 16.3054 145.271 16.3054C143.47 16.3054 142.301 16.3711 142.29 16.3711H142.232C139.743 16.4512 137.62 17.281 136.098 18.7708C134.637 20.1997 133.833 22.1813 133.833 24.3519V24.3744C133.833 29.0312 137.218 32.2399 142.256 32.3568C143.301 32.4017 144.364 32.4225 145.422 32.4225C147.221 32.4225 148.392 32.36 148.403 32.3568H148.459C150.948 32.2767 153.071 31.4469 154.596 29.9571C156.057 28.5298 156.861 26.5466 156.861 24.376V24.3535C156.861 19.7896 153.475 16.581 148.437 16.3711M153.209 24.3231C153.197 27.2803 151.274 29.1978 148.188 29.326H148.119L148.054 29.3292C147.866 29.3436 147.142 29.3948 145.577 29.3948C144.531 29.3948 143.528 29.3724 142.596 29.3276H142.541C139.421 29.2459 137.482 27.3267 137.482 24.3199C137.482 21.3131 139.406 19.4196 142.503 19.2882H142.634C142.646 19.285 143.933 19.2209 145.699 19.2209C146.692 19.2209 147.117 19.2418 147.961 19.2802L148.092 19.285C151.294 19.434 153.205 21.3051 153.205 24.2943V24.3199L153.209 24.3231Z" fill="white"/>
<path d="M161.311 32.0299H179.995V29.1288H164.733V25.683H178.117V22.9053H164.733V19.5973H179.995V16.6978H161.311V32.0299Z" fill="white"/>
<path d="M163.761 14.7947H168.775C169.371 14.7947 169.869 14.2965 169.869 13.7005C169.869 13.1046 169.371 12.584 168.775 12.584H163.761C163.142 12.584 162.642 13.0822 162.642 13.7005C162.642 14.3189 163.142 14.7947 163.761 14.7947Z" fill="white"/>
<path d="M58.5599 16.7458H58.507C56.0657 16.8227 53.9832 17.6093 52.4902 19.0238C51.0596 20.3806 50.2731 22.2613 50.2731 24.3214V24.3438C50.2731 28.7636 53.5923 31.8072 58.5311 31.9178C59.9215 31.9754 64.1122 31.9802 65.8503 31.9802C68.0978 31.9802 70.2428 31.9706 70.8804 31.9578V29.0247C69.924 29.0359 62.6448 29.0471 61.7878 29.0471C60.7738 29.0471 59.7533 29.0263 58.8386 28.9862C55.811 28.9141 53.8518 27.0895 53.8518 24.3422C53.8518 21.5949 55.7853 19.7414 58.7745 19.6261H58.8418L58.9043 19.6229C58.9155 19.6229 60.1698 19.5636 61.9047 19.5636C62.3885 19.5636 69.8648 19.5732 70.8788 19.5893V16.7074C70.206 16.693 69.1535 16.6833 67.7518 16.6833C63.904 16.6833 58.6128 16.7442 58.5599 16.7458Z" fill="white"/>
<path d="M18.96 0.0249023C8.96232 0.0249023 0.829285 10.1187 0.829285 22.5241C0.829285 34.9295 8.96232 45.0233 18.96 45.0233C28.9577 45.0233 37.0907 34.9295 37.0907 22.5241C37.0907 10.1187 28.9561 0.0249023 18.96 0.0249023ZM4.17092 30.3127L4.1533 30.2599C3.55258 28.4016 3.37476 26.774 3.37156 26.758V26.7356L3.38758 26.7228L18.9584 15.2081L34.5484 26.7356V26.758C34.5436 26.774 34.3658 28.4016 33.7651 30.2599L33.7475 30.3127L33.7026 30.2791L18.9584 19.3459L4.17092 30.3143V30.3127ZM18.96 42.9007C13.7665 42.9007 8.90625 39.684 5.89781 34.2823L5.86257 34.2134L18.96 24.5281L32.059 34.215L32.0254 34.2775C29.017 39.684 24.1551 42.9023 18.96 42.9023V42.9007ZM18.9584 9.93929L2.96627 21.8016L2.96947 21.7199C3.13127 16.4576 4.86616 11.5364 7.85698 7.86318C10.8558 4.17872 14.7998 2.14907 18.96 2.14907C23.1202 2.14907 27.0626 4.17872 30.063 7.86478C33.0522 11.538 34.7887 16.4576 34.9505 21.7215L34.9537 21.8032L34.8881 21.7536L18.9584 9.93929Z" fill="white"/>
</g>
<defs>
<clipPath id="clip0_310_72">
<rect width="204.341" height="45" fill="white" transform="translate(0.829285 0.0249023)"/>
</clipPath>
</defs>
</svg>
