<svg width="107" height="26" viewBox="0 0 107 26" fill="none" xmlns="http://www.w3.org/2000/svg">
<path d="M9.55 0H0.589996L7.28 12.91L0.589996 25.83H9.55L16.24 12.92L9.55 0ZM19.57 0H11.59L18.28 12.91L11.59 25.82H19.57L26.26 12.91L19.57 0ZM29.59 0H22.59L29.28 12.91L22.59 25.82H29.59L36.28 12.91L29.59 0ZM39.61 0H33.58L40.27 12.91L33.58 25.82H39.61L46.3 12.91L39.61 0ZM49.63 0H44.58L51.27 12.91L44.58 25.82H49.63L56.32 12.91L49.63 0ZM55.58 0L62.27 12.91L55.58 25.82H59.65L66.34 12.91L59.65 0H55.58ZM66.57 0L73.26 12.91L66.57 25.82H69.66L76.35 12.91L69.67 0H66.58H66.57ZM77.57 0L84.26 12.91L77.57 25.82H79.68L86.37 12.91L79.68 0H77.57ZM88.57 0L95.26 12.91L88.57 25.82H89.7L96.39 12.91L89.7 0H88.57ZM99.72 0H99.56L106.25 12.91L99.56 25.82H99.72L106.41 12.91L99.72 0Z" fill="#E20613"/>
</svg>
