<svg width="42" height="26" viewBox="0 0 42 26" fill="none" xmlns="http://www.w3.org/2000/svg">
<g clip-path="url(#clip0_519_219)">
<path d="M3.17978 7.10842C-0.144668 11.3018 -0.926794 16.971 1.13848 21.9085C1.15336 21.9349 1.17073 21.9597 1.18809 21.9845C1.19966 22.0126 1.21289 22.0407 1.22777 22.0672C1.24431 22.0887 1.26498 22.1052 1.28234 22.1259C1.28813 22.1333 1.29474 22.14 1.30136 22.1466C2.0562 23.0635 3.4923 23.4115 5.22687 23.4115C7.59888 23.3206 9.95021 22.9411 12.2304 22.2805C14.0022 23.705 16.0948 24.6765 18.3262 25.1105C18.652 25.1568 18.981 25.18 19.3101 25.18C22.2319 25.18 25.4274 23.4851 28.2814 21.9705C29.4753 21.3041 30.708 20.708 31.9713 20.1846C33.958 21.0288 35.4429 22.0267 36.058 22.9452C36.7707 23.9076 37.9116 24.4582 39.1088 24.4169C39.7512 24.4301 40.3845 24.2656 40.9376 23.939C41.8992 23.3305 42.5242 22.0085 41.3948 20.1251C40.9814 19.4554 40.4556 18.8626 39.8405 18.3724C39.8206 18.3558 39.7991 18.3401 39.7768 18.3261C37.4007 16.3955 33.8266 15.396 32.4665 15.0669C32.3458 12.6395 31.099 3.42267 19.2291 1.5459C16.7297 1.13582 14.1742 1.22263 11.7088 1.8022L11.421 1.22676C11.3103 1.00519 11.0903 0.85885 10.8423 0.843968C10.5951 0.829086 10.3586 0.947315 10.2214 1.15401C10.085 1.3607 10.0684 1.62444 10.1792 1.84684L10.3495 2.18665C7.53025 3.09196 5.03754 4.80255 3.17895 7.10759L3.17978 7.10842ZM3.23931 21.7894C4.45218 21.3041 6.54557 20.5129 9.22431 19.7092C9.6195 20.0987 10.1784 20.6237 10.8555 21.195C7.36986 22.0407 4.6597 22.245 3.24013 21.7894H3.23931ZM27.6316 20.7435C24.6411 22.3301 21.2522 24.135 18.5238 23.7365C16.4123 23.3057 14.4421 22.3549 12.7893 20.9709C12.0866 20.4368 11.4111 19.8688 10.7654 19.2669C13.5417 18.4939 16.3643 17.8986 19.2158 17.4836C28.1218 16.212 31.3223 16.3046 31.6918 16.3162C33.3776 16.6924 35.0179 17.2504 36.5822 17.9805C35.3908 18.0259 34.2044 18.1714 33.037 18.4145C32.5996 18.5046 32.1705 18.627 31.7514 18.7808L31.715 18.7957C30.3111 19.3521 28.9469 20.0036 27.6307 20.7444V20.7427L27.6316 20.7435ZM40.1927 22.7675C39.1824 23.2867 37.9464 23.042 37.2114 22.1755C36.3714 21.0933 35.2891 20.2243 34.0514 19.6381C35.7099 19.3033 37.4156 19.2752 39.0832 19.5563C39.5222 19.9209 39.8992 20.3541 40.201 20.8386C40.7565 21.7646 40.7516 22.4144 40.1927 22.7683V22.7675ZM15.9344 2.67361C16.9645 2.67527 17.9922 2.75794 19.01 2.91999C29.7125 4.61074 30.951 12.5238 31.0792 14.9247C27.0388 15.0669 23.0107 15.4629 19.0199 16.1103C15.7054 16.5956 12.4305 17.3174 9.21935 18.2698C9.19454 18.2756 9.16974 18.2831 9.14494 18.2922C6.78285 18.9825 4.45714 19.7952 2.17939 20.727C0.616788 16.4022 1.40636 11.5763 4.2645 7.97322C7.01269 4.52972 11.1614 2.67361 15.9344 2.67361Z" fill="black"/>
<path d="M8.82418 17.4902C8.91347 17.4902 9.00193 17.4811 9.08874 17.4646L10.3438 17.2215C10.9019 17.1157 11.3384 16.6791 11.4426 16.121L11.6881 14.842L13.3913 14.5122C13.9088 14.4146 14.3247 14.031 14.4644 13.5242C14.476 13.4803 14.4843 13.4365 14.4884 13.3919L14.5396 12.7305C14.6397 12.2749 14.5033 11.7995 14.1775 11.4655C13.8518 11.1315 13.3797 10.9843 12.9217 11.0728L12.1693 11.2183L12.3082 10.4849L14.2709 10.1046C15.1498 9.93101 15.8203 9.21668 15.9394 8.32873L16.0915 7.14975C16.1196 6.929 16.0402 6.70825 15.8782 6.55613C15.7161 6.404 15.4904 6.33869 15.2722 6.38085L9.39052 7.51932C8.9515 7.60447 8.61666 7.96164 8.55878 8.40562L8.30827 10.3163L7.46166 15.8433C7.38394 16.2492 7.49225 16.6684 7.75516 16.9867C8.01807 17.305 8.40996 17.4894 8.82335 17.4894L8.82418 17.4902ZM9.68319 10.5106L9.90311 8.83223L14.5967 7.92196L14.5678 8.1427C14.5297 8.44034 14.3073 8.68093 14.013 8.74211L12.0502 9.1216C11.493 9.22743 11.0573 9.66479 10.9531 10.222L10.8142 10.9554C10.7274 11.4068 10.8704 11.8723 11.1962 12.198C11.5219 12.5229 11.9874 12.6651 12.4396 12.5783L13.192 12.432C13.1796 12.475 13.1713 12.5196 13.1689 12.5643L13.1226 13.1513L11.4302 13.4795C10.8729 13.5862 10.438 14.0227 10.3322 14.5799L10.0875 15.8581L8.83492 16.0764L9.68485 10.5106H9.68319Z" fill="black"/>
<path d="M17.8781 13.6433L19.7681 13.2778L19.7251 14.0889C19.7102 14.3733 19.8119 14.6519 20.0078 14.8586C20.2038 15.0661 20.4758 15.1835 20.7602 15.1844C20.828 15.1844 20.895 15.1777 20.9619 15.1637L22.9834 14.7726C23.4522 14.6817 23.7986 14.284 23.8234 13.8078L24.2451 5.95676C24.2624 5.6368 24.131 5.32676 23.8895 5.11676C23.6481 4.90676 23.3232 4.81913 23.009 4.88031L18.2435 5.80298C17.8045 5.88814 17.4697 6.24531 17.411 6.68928L16.6478 12.4858C16.6049 12.8173 16.7231 13.1497 16.9662 13.3787C17.2092 13.6077 17.5482 13.7061 17.8764 13.6424H17.8781V13.6433ZM18.7528 7.11838L22.8354 6.32716L22.7974 7.03983L21.7937 7.23495C21.4439 7.3044 21.2042 7.62684 21.2381 7.98153C21.272 8.33621 21.5688 8.60739 21.9251 8.60822C21.9698 8.60822 22.0144 8.60409 22.0574 8.59582L22.7205 8.46684L22.6816 9.182L21.5109 9.40853C21.1612 9.47798 20.9214 9.80043 20.9553 10.1551C20.9892 10.5098 21.286 10.781 21.6424 10.7826C21.687 10.7826 21.7308 10.7785 21.7747 10.7702L22.6072 10.609L22.4543 13.4639L21.1364 13.7201L21.1802 12.9091C21.1951 12.6247 21.0934 12.3461 20.8975 12.1394C20.7015 11.9327 20.4295 11.8144 20.1451 11.8136C20.0773 11.8136 20.0103 11.8194 19.9442 11.8326L18.0906 12.1914L18.752 7.11838H18.7528Z" fill="black"/>
</g>
<defs>
<clipPath id="clip0_519_219">
<rect width="42" height="24.336" fill="white" transform="translate(0 0.843994)"/>
</clipPath>
</defs>
</svg>
