<svg width="42" height="45" viewBox="0 0 42 45" fill="none" xmlns="http://www.w3.org/2000/svg">
<g clip-path="url(#clip0_519_191)">
<path d="M3.18586 30.6165C0.126094 32.5736 -0.107644 39.0666 0.0295503 42.792C0.0566504 43.5694 0.696889 44.1843 1.47432 44.18H40.5289C41.3055 44.1834 41.9457 43.5703 41.9737 42.7937C42.0838 39.8 41.9855 32.6718 38.786 30.619L38.7784 30.6105C36.2691 28.606 31.53 26.6497 28.7598 25.6046L29.6558 24.7882C31.0354 23.5442 31.8789 21.814 32.0093 19.9602L32.1677 17.7761C32.332 17.6643 32.4429 17.489 32.4726 17.2925L32.5454 16.787C32.8265 14.8374 32.7944 12.8549 32.4488 10.9156C32.4488 10.8995 32.4454 10.8749 32.4421 10.8605C32.4395 10.847 32.4336 10.8402 32.4319 10.8292C32.2812 9.97976 32.0711 9.1422 31.8035 8.32158C31.8001 8.30634 31.8035 8.29194 31.7984 8.27754C31.7934 8.26314 31.784 8.23689 31.773 8.20471C31.7688 8.19031 31.7637 8.17676 31.7578 8.16321C30.0175 3.73405 25.7424 0.819946 20.9821 0.819946C16.2218 0.819946 11.9476 3.73405 10.2082 8.16491C10.1997 8.18354 10.1929 8.20302 10.1878 8.22334C10.1794 8.24451 10.1717 8.26399 10.1667 8.27924H10.1734H10.1675C10.1641 8.29109 10.1675 8.3038 10.1633 8.31565C9.89651 9.13882 9.68733 9.97892 9.53744 10.8309C9.53405 10.8453 9.52388 10.8571 9.5205 10.8724C9.50864 10.9333 9.50102 10.9952 9.49763 11.057C9.18259 12.9548 9.15719 14.8883 9.42395 16.7937L9.49679 17.2925C9.52643 17.489 9.63737 17.6643 9.80166 17.7761L9.96003 19.9602C10.0904 21.8123 10.9348 23.5425 12.3152 24.7849L13.2146 25.6038C10.4444 26.648 5.70447 28.6043 3.19602 30.6088L3.1884 30.6165H3.18586ZM1.47432 42.7395L0.751936 42.7657L1.47432 42.7386V42.7395ZM1.47432 42.7344C1.32188 38.6237 1.8046 33.8676 3.54917 32.1552C4.23853 33.1139 5.70616 35.9416 5.8044 42.7344H1.47432ZM20.2614 42.7344V30.4039C20.7416 30.4657 21.2269 30.4657 21.7062 30.4039V42.7344H20.2614ZM40.5297 42.7344H36.1641C36.2623 35.9238 37.7376 33.0995 38.4185 32.1527C40.1884 33.8693 40.6813 38.6271 40.5297 42.7344ZM37.2557 31.2804C36.3453 32.5084 34.8167 35.6206 34.7193 42.7344H23.1518V30.0634C23.9242 29.7831 24.6339 29.3546 25.2419 28.8033L27.5547 26.698C29.583 27.4432 34.4678 29.3419 37.2557 31.2804ZM10.784 15.8622C10.5986 14.0244 10.7044 12.1698 11.0982 10.3651C11.4065 10.7453 11.7808 11.0672 12.2034 11.3144L10.784 15.863V15.8622ZM13.5677 11.7921C13.7938 11.8293 14.0225 11.848 14.2512 11.8497C14.4942 11.8497 14.7203 11.8361 14.9371 11.8183L13.1307 17.5991C12.709 17.4602 12.2923 17.3061 11.896 17.146L13.5677 11.7921ZM16.5496 11.5033C16.8663 11.4059 17.1653 11.2992 17.4583 11.1908C17.9257 11.0113 18.4034 10.8588 18.8895 10.736L16.5767 18.1555C15.889 18.2233 15.1937 18.1674 14.5255 17.9912L16.5504 11.5033H16.5496ZM20.4723 10.5192C20.6366 10.5116 20.8043 10.5057 20.9847 10.5057C21.298 10.5057 21.5775 10.5209 21.8434 10.5429L19.9794 16.5117C19.4086 16.6006 18.8675 16.8242 18.4 17.1621L20.4732 10.5192H20.4723ZM23.2797 10.7868C23.7133 10.9037 24.1096 11.0451 24.5085 11.1908C25.5239 11.6176 26.6139 11.842 27.7156 11.8522C28.9411 11.8691 30.1072 11.3204 30.8728 10.3634C31.331 12.4052 31.4131 14.5139 31.1159 16.5854L31.0998 16.7048C29.0046 17.6931 25.8466 18.6628 24.7524 17.9336C22.9672 16.7438 22.6191 16.5117 21.5047 16.4728L23.2789 10.7877L23.2797 10.7868ZM20.9847 2.2698C25.0581 2.27234 28.7344 4.71558 30.313 8.47148C29.9531 9.60629 28.908 10.3854 27.7173 10.4049C26.7849 10.3947 25.8627 10.1991 25.0056 9.83156C24.3586 9.58004 23.693 9.38356 23.0138 9.24383H23.0062C22.9968 9.24044 22.9875 9.24383 22.9782 9.24044C22.321 9.11849 21.6529 9.05921 20.9847 9.0626C20.5841 9.0626 20.2242 9.08377 19.8871 9.11595C19.8702 9.11595 19.8532 9.11595 19.8355 9.11934C18.8497 9.22604 17.8834 9.4674 16.9637 9.8358C16.1067 10.2033 15.1844 10.3981 14.252 10.4091C13.4153 10.4295 12.6226 10.0331 12.1373 9.35223C11.9375 9.08208 11.7757 8.78567 11.6563 8.47232C13.2256 4.7088 16.9078 2.26133 20.9855 2.27065L20.9847 2.2698ZM11.4006 19.856L11.3286 18.872V18.8584L11.3006 18.4663C12.8089 19.132 14.4239 19.5232 16.0694 19.6223C16.4666 19.6257 16.8629 19.574 17.2466 19.4707C17.3245 19.4589 17.399 19.4343 17.4693 19.3979C17.6632 19.3318 17.8487 19.2421 18.0214 19.132C19.2466 18.3133 20.2341 17.904 20.9838 17.904C21.7336 17.904 22.7211 18.3133 23.9462 19.132C25.6086 20.2414 28.7971 19.2243 30.6662 18.4621L30.5662 19.8527C30.4621 21.3355 29.7871 22.7193 28.6828 23.7144L24.268 27.7311C22.4057 29.4266 19.5594 29.4266 17.6971 27.7311L13.2823 23.7144C12.1797 22.7202 11.5056 21.3372 11.4014 19.856H11.4006ZM16.7257 28.8041C17.3346 29.3555 18.0443 29.784 18.8158 30.0634V42.7344H7.24833C7.15094 35.6215 5.62232 32.5058 4.71193 31.2804C7.50239 29.3402 12.3889 27.4424 14.4121 26.698L16.7257 28.8041Z" fill="black"/>
<path d="M10.1456 36.9545H15.2031C16.0009 36.9545 16.6479 36.3075 16.6479 35.5097V34.0649C16.6479 33.2672 16.0009 32.6202 15.2031 32.6202H10.1456C9.34782 32.6202 8.70081 33.2672 8.70081 34.0649V35.5097C8.70081 36.3075 9.34782 36.9545 10.1456 36.9545ZM10.1456 34.0641H15.2031V35.5089H10.1456V34.0641Z" fill="black"/>
<path d="M15.9264 38.3992H9.42319C9.02431 38.3992 8.70081 38.7227 8.70081 39.1216C8.70081 39.5205 9.02431 39.844 9.42319 39.844H15.9264C16.3252 39.844 16.6487 39.5205 16.6487 39.1216C16.6487 38.7227 16.3252 38.3992 15.9264 38.3992Z" fill="black"/>
<path d="M29.6551 40.5672C32.0492 40.5672 33.9903 38.6262 33.9903 36.2321C33.9903 33.838 32.0492 31.8969 29.6551 31.8969C27.261 31.8969 25.3199 33.838 25.3199 36.2321C25.3225 38.6253 27.2618 40.5655 29.6551 40.5672ZM29.6551 33.3408C31.2515 33.3408 32.5455 34.6349 32.5455 36.2312C32.5455 37.8276 31.2515 39.1216 29.6551 39.1216C28.0587 39.1216 26.7647 37.8276 26.7647 36.2312C26.7647 34.6349 28.0587 33.3408 29.6551 33.3408Z" fill="black"/>
<path d="M28.9327 36.9545H30.3775C30.7764 36.9545 31.0999 36.631 31.0999 36.2321C31.0999 35.8332 30.7764 35.5097 30.3775 35.5097H28.9327C28.5338 35.5097 28.2103 35.8332 28.2103 36.2321C28.2103 36.631 28.5338 36.9545 28.9327 36.9545Z" fill="black"/>
<path d="M18.8167 23.2249H23.1519C23.5508 23.2249 23.8743 22.9014 23.8743 22.5025C23.8743 22.1037 23.5508 21.7802 23.1519 21.7802H18.8167C18.4179 21.7802 18.0944 22.1037 18.0944 22.5025C18.0944 22.9014 18.4179 23.2249 18.8167 23.2249Z" fill="black"/>
<path d="M22.4295 23.9473H19.5392C19.1403 23.9473 18.8168 24.2708 18.8168 24.6697C18.8168 25.0686 19.1403 25.3921 19.5392 25.3921H22.4295C22.8284 25.3921 23.1519 25.0686 23.1519 24.6697C23.1519 24.2708 22.8284 23.9473 22.4295 23.9473Z" fill="black"/>
<path d="M21.7071 26.1153H20.2624C19.8635 26.1153 19.54 26.4388 19.54 26.8377C19.54 27.2366 19.8635 27.5601 20.2624 27.5601H21.7071C22.106 27.5601 22.4295 27.2366 22.4295 26.8377C22.4295 26.4388 22.106 26.1153 21.7071 26.1153Z" fill="black"/>
<path d="M14.2131 8.72213C14.2987 8.756 14.3893 8.77379 14.4816 8.77379C14.7772 8.77379 15.0431 8.59425 15.1523 8.31902C15.8603 6.48976 17.5803 5.25163 19.5391 5.16016C19.938 5.16016 20.2615 4.83666 20.2615 4.43778C20.2615 4.0389 19.938 3.71539 19.5391 3.71539C16.9875 3.80432 14.7348 5.40407 13.8092 7.78294C13.738 7.96079 13.7406 8.1598 13.816 8.33595C13.8913 8.5121 14.0344 8.65099 14.2123 8.72213H14.2131Z" fill="black"/>
</g>
<defs>
<clipPath id="clip0_519_191">
<rect width="42" height="43.3601" fill="white" transform="translate(0 0.819946)"/>
</clipPath>
</defs>
</svg>
