<svg width="43" height="31" viewBox="0 0 43 31" fill="none" xmlns="http://www.w3.org/2000/svg">
<path d="M26.3772 15.275C27.5572 16.045 28.6572 16.955 29.6272 17.975C30.6872 19.075 31.8572 20.045 33.1372 20.865C34.2072 21.525 35.4472 21.885 36.7072 21.895C36.9172 21.895 37.1172 21.895 37.3272 21.865C37.8372 21.815 38.2872 21.485 38.4772 21.005L39.9272 17.515L41.5372 13.645L42.7072 10.815C42.8872 10.385 42.8372 9.885 42.5772 9.495C42.3272 9.115 41.9072 8.885 41.4572 8.875C40.4672 8.855 39.4972 8.565 38.6572 8.035C37.4772 7.265 36.3772 6.355 35.4072 5.335C34.3472 4.235 33.1672 3.265 31.8972 2.435C30.6872 1.685 29.2772 1.335 27.8572 1.425C27.6672 0.855 27.2372 0.395 26.6772 0.165C26.1672 -0.055 25.5872 -0.055 25.0672 0.165C24.5472 0.375 24.1472 0.785 23.9272 1.305L21.8172 6.385L19.7072 1.305C19.3872 0.525 18.6172 0.015 17.7672 0.015C16.9172 0.015 16.1472 0.525 15.8272 1.305C15.8072 1.345 15.8072 1.395 15.7872 1.435C14.3672 1.345 12.9472 1.695 11.7372 2.445C10.4572 3.275 9.27719 4.245 8.22719 5.345C7.24719 6.365 6.15719 7.275 4.97719 8.045C4.13719 8.565 3.16719 8.855 2.17719 8.885C1.72719 8.885 1.30719 9.125 1.05719 9.505C0.797195 9.895 0.747195 10.385 0.927195 10.825L2.09719 13.655L3.70719 17.525L5.15719 21.015C5.34719 21.495 5.79719 21.825 6.30719 21.875C6.51719 21.895 6.72719 21.905 6.92719 21.905C8.18719 21.895 9.42719 21.535 10.4972 20.875C11.7772 20.045 12.9572 19.075 14.0072 17.975C14.9872 16.955 16.0772 16.045 17.2572 15.275C17.5972 15.075 17.9572 14.905 18.3272 14.765L13.1872 27.125C12.7472 28.195 13.2572 29.415 14.3272 29.865C14.5772 29.965 14.8472 30.025 15.1172 30.025C15.9672 30.025 16.7472 29.515 17.0772 28.725L21.7972 17.345L26.5172 28.725C26.7272 29.235 27.1372 29.645 27.6572 29.855C28.1772 30.065 28.7572 30.065 29.2672 29.855C30.3372 29.415 30.8472 28.185 30.4072 27.115L25.2772 14.755C25.6472 14.885 25.9972 15.055 26.3372 15.255L26.3772 15.275ZM27.3772 9.575L27.2372 9.525C27.0572 9.465 26.8772 9.415 26.6972 9.365C26.6572 9.355 26.6172 9.345 26.5772 9.335C26.3772 9.285 26.1672 9.255 25.9672 9.225H25.9172C25.6872 9.185 25.4572 9.175 25.2272 9.165L26.2372 6.715H26.2672C26.4772 6.695 26.6972 6.685 26.9072 6.695C26.9472 6.695 26.9872 6.695 27.0172 6.695C27.2072 6.705 27.3972 6.735 27.5872 6.765H27.6672C27.8772 6.815 28.0872 6.875 28.2872 6.945C28.3272 6.955 28.3772 6.975 28.4172 6.995C28.5972 7.055 28.7772 7.135 28.9672 7.215C28.9872 7.225 29.0072 7.235 29.0372 7.245L28.4772 8.585L27.9672 9.825C27.9672 9.825 27.8972 9.795 27.8672 9.785C27.6972 9.705 27.5172 9.635 27.3472 9.565L27.3772 9.575ZM31.8772 4.105C32.6672 4.695 33.4072 5.335 34.1072 6.035L33.0772 8.525L33.0372 8.495C33.0372 8.495 32.9572 8.415 32.9172 8.385C32.6972 8.185 32.4772 7.985 32.2572 7.795C32.1972 7.745 32.1472 7.695 32.0872 7.645C31.8372 7.425 31.5772 7.225 31.3172 7.025C31.2572 6.985 31.2072 6.945 31.1472 6.905C31.0372 6.825 30.9372 6.745 30.8272 6.675L31.5372 4.965L31.8872 4.115L31.8772 4.105ZM34.4172 11.695C34.4672 11.745 34.5272 11.795 34.5772 11.835C34.8272 12.055 35.0872 12.255 35.3572 12.455C35.4072 12.495 35.4672 12.535 35.5272 12.575C35.6372 12.655 35.7372 12.735 35.8472 12.805L35.1372 14.515L34.7872 15.355C34.7872 15.355 34.7172 15.305 34.6772 15.285C34.6172 15.245 34.5572 15.195 34.4972 15.145C34.2972 14.995 34.0972 14.835 33.9072 14.675C33.8572 14.625 33.7972 14.585 33.7472 14.535C33.5072 14.325 33.2772 14.115 33.0372 13.895C32.9772 13.845 32.9172 13.785 32.8572 13.725C32.7572 13.625 32.6472 13.525 32.5472 13.435L33.5772 10.945L33.6172 10.985C33.6172 10.985 33.6972 11.065 33.7372 11.095C33.9572 11.305 34.1772 11.505 34.4072 11.695H34.4172ZM37.3972 13.645C37.5972 13.725 37.7872 13.795 37.9872 13.855C38.0772 13.885 38.1572 13.905 38.2472 13.935C38.4572 13.995 38.6672 14.035 38.8772 14.075C38.9372 14.085 39.0072 14.105 39.0672 14.105C39.3172 14.135 39.5672 14.155 39.8272 14.165L38.8072 16.615C38.8072 16.615 38.7872 16.615 38.7672 16.615C38.5572 16.635 38.3472 16.635 38.1372 16.635C38.0872 16.635 38.0472 16.635 37.9972 16.635C37.8172 16.625 37.6372 16.605 37.4572 16.575C37.4172 16.575 37.3872 16.565 37.3472 16.555C37.1372 16.515 36.9372 16.465 36.7372 16.395C36.6972 16.385 36.6472 16.365 36.6072 16.345C36.4272 16.285 36.2472 16.205 36.0572 16.125C36.0372 16.115 36.0172 16.105 35.9972 16.095L37.0672 13.515C37.0672 13.515 37.1372 13.545 37.1672 13.555C37.2372 13.585 37.3172 13.615 37.3972 13.645ZM30.9472 17.305L31.9772 14.815L32.0172 14.855L32.1372 14.965C32.3572 15.165 32.5772 15.365 32.7972 15.565C32.8572 15.615 32.9072 15.665 32.9672 15.715C33.2172 15.935 33.4772 16.135 33.7372 16.335C33.7972 16.375 33.8472 16.415 33.9072 16.455C34.0172 16.535 34.1172 16.615 34.2272 16.685L33.1672 19.235C32.3772 18.645 31.6372 18.005 30.9372 17.305H30.9472ZM30.6472 11.645L30.4872 11.505C30.2372 11.285 29.9772 11.075 29.7072 10.885C29.6572 10.845 29.5972 10.805 29.5472 10.765C29.4372 10.685 29.3372 10.605 29.2272 10.535L30.2872 7.985C30.2872 7.985 30.3572 8.035 30.3972 8.055C30.4572 8.095 30.5172 8.145 30.5772 8.195C30.7772 8.345 30.9772 8.505 31.1672 8.665C31.2172 8.715 31.2772 8.755 31.3372 8.805C31.5672 9.005 31.8072 9.215 32.0372 9.435C32.1072 9.495 32.1672 9.555 32.2372 9.625C32.3372 9.715 32.4272 9.805 32.5272 9.905L32.0572 11.045L31.4972 12.395L31.4472 12.345L31.3572 12.255C31.1372 12.045 30.9072 11.835 30.6772 11.635L30.6472 11.645ZM28.6572 11.855C28.6572 11.855 28.7172 11.895 28.7472 11.915C28.8272 11.975 28.9072 12.035 28.9872 12.095C29.1572 12.225 29.3172 12.355 29.4872 12.495C29.5672 12.565 29.6572 12.635 29.7372 12.705C29.9572 12.895 30.1772 13.095 30.3972 13.295C30.4772 13.365 30.5472 13.445 30.6272 13.515C30.7172 13.595 30.8072 13.685 30.8972 13.765L29.8672 16.255C29.1672 15.575 28.4072 14.955 27.6072 14.395L28.6672 11.855H28.6572ZM37.1972 20.485C36.2272 20.575 35.2572 20.395 34.3872 19.955L34.8972 18.715L35.4572 17.375C35.4572 17.375 35.5272 17.405 35.5572 17.415C35.6372 17.455 35.7172 17.485 35.7972 17.515C35.9872 17.595 36.1872 17.665 36.3772 17.725C36.4672 17.755 36.5572 17.775 36.6472 17.805C36.8572 17.865 37.0672 17.905 37.2772 17.935C37.3372 17.945 37.4072 17.965 37.4672 17.965C37.7172 18.005 37.9672 18.025 38.2272 18.025L37.1972 20.485ZM40.4172 12.745H40.3772C40.1672 12.765 39.9572 12.775 39.7572 12.765C39.7072 12.765 39.6572 12.765 39.6072 12.765C39.4372 12.755 39.2572 12.735 39.0872 12.705C39.0472 12.705 39.0072 12.695 38.9572 12.685C38.7572 12.645 38.5572 12.595 38.3572 12.525C38.3072 12.505 38.2572 12.495 38.2072 12.475C38.0272 12.415 37.8572 12.345 37.6772 12.265C37.6472 12.255 37.6272 12.245 37.5972 12.235L38.3472 10.435L38.6672 9.655C39.5272 10.065 40.4672 10.295 41.4272 10.305L40.4072 12.755L40.4172 12.745ZM37.4172 9.025L36.3972 11.485C36.3972 11.485 36.3272 11.435 36.2872 11.415C36.2272 11.375 36.1672 11.325 36.1072 11.275C35.9072 11.125 35.7172 10.965 35.5272 10.805C35.4672 10.755 35.4172 10.705 35.3572 10.665C35.1272 10.465 34.8872 10.255 34.6572 10.035C34.5872 9.965 34.5172 9.895 34.4472 9.835C34.3572 9.745 34.2672 9.655 34.1672 9.575L35.1972 7.085C35.8972 7.765 36.6572 8.385 37.4572 8.945L37.4272 9.035L37.4172 9.025ZM30.6672 3.375L30.1272 4.685L29.5972 5.965C29.5472 5.945 29.4872 5.925 29.4372 5.895C29.2972 5.835 29.1672 5.775 29.0272 5.725C28.9472 5.695 28.8572 5.665 28.7772 5.635C28.6472 5.595 28.5172 5.555 28.3872 5.515C28.3072 5.495 28.2172 5.475 28.1372 5.455C27.9972 5.425 27.8572 5.395 27.7172 5.375C27.6472 5.365 27.5672 5.345 27.4972 5.345C27.2872 5.315 27.0672 5.305 26.8572 5.295H26.8472L27.8672 2.835C28.8372 2.745 29.8072 2.925 30.6772 3.365L30.6672 3.375ZM25.2372 1.855C25.3672 1.545 25.6972 1.365 26.0272 1.435C26.3572 1.505 26.5872 1.785 26.5872 2.125C26.5872 2.215 26.5672 2.315 26.5272 2.395L23.3472 10.055L22.5972 8.235L25.2472 1.855H25.2372ZM19.5272 13.085C18.7572 13.165 17.9972 13.375 17.2972 13.705L17.0272 13.045L16.2272 11.125C16.2272 11.125 16.2672 11.105 16.2972 11.095C16.4772 11.015 16.6572 10.935 16.8372 10.875C16.8872 10.855 16.9272 10.845 16.9772 10.825C17.1772 10.755 17.3772 10.705 17.5872 10.665C17.6272 10.665 17.6672 10.655 17.7072 10.645C17.8772 10.615 18.0572 10.595 18.2272 10.585C18.2772 10.585 18.3272 10.585 18.3772 10.585C18.5872 10.585 18.7972 10.585 19.0072 10.595H19.0472L20.0672 13.055C19.8872 13.055 19.7172 13.075 19.5472 13.095L19.5272 13.085ZM13.9672 10.885C13.6972 11.085 13.4472 11.295 13.1872 11.505L13.0272 11.645C12.7972 11.845 12.5672 12.055 12.3472 12.265L12.2572 12.355L12.2072 12.405L11.6472 11.055L11.1772 9.915C11.2772 9.825 11.3672 9.725 11.4672 9.635C11.5372 9.575 11.5972 9.505 11.6672 9.445C11.8972 9.225 12.1372 9.015 12.3672 8.815C12.4272 8.765 12.4772 8.725 12.5372 8.675C12.7272 8.505 12.9272 8.355 13.1272 8.205C13.1872 8.155 13.2472 8.115 13.3072 8.065C13.3372 8.035 13.3772 8.015 13.4172 7.995L14.4772 10.535C14.3672 10.605 14.2572 10.695 14.1572 10.765C14.1072 10.805 14.0472 10.845 13.9972 10.885H13.9672ZM10.4972 19.235L9.43719 16.685C9.54719 16.615 9.64719 16.535 9.75719 16.455C9.81719 16.415 9.86719 16.375 9.92719 16.335C10.1872 16.135 10.4472 15.935 10.6972 15.715C10.7572 15.665 10.8072 15.615 10.8672 15.565C11.0872 15.375 11.3072 15.175 11.5272 14.965L11.6472 14.855L11.6872 14.815L12.7172 17.305C12.0172 17.995 11.2772 18.645 10.4872 19.235H10.4972ZM7.06719 16.335C7.06719 16.335 6.96719 16.365 6.92719 16.385C6.72719 16.445 6.52719 16.505 6.31719 16.545C6.27719 16.545 6.23719 16.555 6.20719 16.565C6.02719 16.595 5.85719 16.615 5.67719 16.625C5.62719 16.625 5.58719 16.625 5.53719 16.625C5.32719 16.625 5.11719 16.625 4.90719 16.615H4.86719L3.84719 14.165C4.09719 14.165 4.35719 14.135 4.60719 14.105C4.66719 14.105 4.73719 14.085 4.79719 14.075C5.00719 14.035 5.21719 13.995 5.42719 13.935C5.51719 13.915 5.59719 13.885 5.68719 13.855C5.88719 13.795 6.07719 13.725 6.27719 13.645C6.35719 13.615 6.42719 13.585 6.50719 13.555C6.53719 13.535 6.57719 13.525 6.60719 13.515L7.27719 15.135L7.67719 16.095C7.67719 16.095 7.62719 16.115 7.60719 16.125C7.42719 16.205 7.24719 16.275 7.06719 16.345V16.335ZM8.31719 12.455C8.58719 12.255 8.83719 12.045 9.09719 11.835L9.25719 11.695C9.48719 11.495 9.70719 11.295 9.92719 11.085C9.96719 11.045 10.0072 11.015 10.0372 10.985C10.0472 10.975 10.0672 10.955 10.0772 10.945L11.1072 13.435C11.0072 13.535 10.9072 13.625 10.8072 13.725L10.6272 13.895C10.3872 14.115 10.1572 14.325 9.91719 14.535C9.86719 14.585 9.80719 14.625 9.75719 14.675C9.56719 14.835 9.36719 14.995 9.16719 15.145C9.10719 15.195 9.04719 15.235 8.98719 15.285C8.95719 15.315 8.91719 15.335 8.87719 15.355L8.52719 14.515L7.81719 12.805C7.92719 12.735 8.03719 12.655 8.13719 12.575C8.18719 12.535 8.24719 12.495 8.29719 12.455H8.31719ZM11.7872 4.105L12.1372 4.955L12.8472 6.665C12.7372 6.735 12.6372 6.815 12.5272 6.895C12.4672 6.935 12.4172 6.975 12.3572 7.015C12.0972 7.215 11.8372 7.415 11.5872 7.635C11.5272 7.685 11.4772 7.735 11.4172 7.785C11.1972 7.975 10.9772 8.175 10.7572 8.375C10.7172 8.415 10.6772 8.455 10.6372 8.485L10.5972 8.515L9.56719 6.025C10.2672 5.335 11.0072 4.685 11.7972 4.095L11.7872 4.105ZM15.2272 6.995C15.2272 6.995 15.3072 6.965 15.3472 6.955C15.5572 6.885 15.7572 6.835 15.9672 6.795C15.9972 6.795 16.0272 6.795 16.0472 6.785C16.2372 6.755 16.4272 6.725 16.6172 6.715C16.6572 6.715 16.6972 6.715 16.7372 6.715C16.9472 6.715 17.1672 6.715 17.3772 6.725C17.3872 6.725 17.3972 6.725 17.4072 6.725L18.4272 9.175C18.2072 9.175 17.9872 9.195 17.7672 9.225C17.7072 9.225 17.6472 9.245 17.5872 9.255C17.4272 9.275 17.2672 9.305 17.1172 9.335C17.0472 9.355 16.9672 9.375 16.8972 9.395C16.7572 9.435 16.6072 9.475 16.4672 9.525C16.3872 9.545 16.3172 9.575 16.2372 9.605C16.0972 9.655 15.9472 9.715 15.8072 9.785C15.7572 9.805 15.7072 9.825 15.6572 9.845L15.1472 8.605L14.5872 7.265C14.5872 7.265 14.6272 7.245 14.6472 7.235C14.8272 7.145 15.0172 7.075 15.1972 7.005L15.2272 6.995ZM15.8172 2.845L16.8372 5.295C16.6172 5.295 16.3972 5.315 16.1872 5.345C16.1272 5.345 16.0572 5.365 15.9972 5.375C15.8472 5.395 15.6972 5.425 15.5472 5.455C15.4672 5.475 15.3872 5.495 15.3172 5.515C15.1772 5.545 15.0472 5.595 14.9072 5.635C14.8272 5.665 14.7472 5.685 14.6672 5.715C14.5272 5.765 14.3872 5.825 14.2472 5.885C14.1972 5.905 14.1472 5.925 14.0972 5.945L13.5672 4.675L13.0172 3.365C13.8872 2.925 14.8572 2.745 15.8272 2.835L15.8172 2.845ZM8.47719 7.075L9.50719 9.565C9.40719 9.655 9.31719 9.755 9.21719 9.845C9.14719 9.905 9.08719 9.975 9.01719 10.035C8.78719 10.255 8.55719 10.465 8.31719 10.665C8.25719 10.715 8.19719 10.765 8.14719 10.815C7.95719 10.975 7.75719 11.135 7.56719 11.285C7.50719 11.335 7.44719 11.375 7.38719 11.425C7.35719 11.455 7.31719 11.475 7.27719 11.495L6.25719 9.045L6.21719 8.955C7.01719 8.395 7.77719 7.775 8.47719 7.095V7.075ZM4.99719 9.635L6.06719 12.215C6.06719 12.215 6.01719 12.235 5.98719 12.255C5.81719 12.335 5.63719 12.405 5.46719 12.465C5.41719 12.485 5.36719 12.505 5.31719 12.515C5.11719 12.575 4.91719 12.635 4.71719 12.675C4.67719 12.675 4.63719 12.685 4.59719 12.695C4.41719 12.725 4.23719 12.745 4.05719 12.755C4.00719 12.755 3.96719 12.755 3.91719 12.755C3.70719 12.755 3.49719 12.755 3.28719 12.745C3.27719 12.745 3.25719 12.745 3.24719 12.745L2.20719 10.295C3.17719 10.285 4.12719 10.055 4.99719 9.645V9.635ZM6.45719 20.485H6.46719L5.44719 18.035C5.69719 18.035 5.95719 18.005 6.20719 17.975C6.26719 17.975 6.33719 17.955 6.39719 17.945C6.60719 17.905 6.81719 17.865 7.02719 17.815C7.11719 17.795 7.20719 17.765 7.29719 17.735C7.48719 17.675 7.68719 17.605 7.87719 17.525C7.95719 17.495 8.03719 17.465 8.11719 17.425C8.14719 17.415 8.18719 17.405 8.21719 17.385L8.77719 18.725L9.28719 19.965C8.41719 20.405 7.42719 20.585 6.45719 20.495V20.485ZM13.8072 16.265L12.7772 13.785C12.8672 13.695 12.9572 13.615 13.0472 13.535C13.1272 13.465 13.1972 13.385 13.2772 13.315C13.4972 13.115 13.7172 12.915 13.9372 12.725C14.0172 12.655 14.1072 12.585 14.1872 12.515C14.3472 12.375 14.5172 12.245 14.6872 12.115C14.7672 12.055 14.8472 11.995 14.9272 11.935C14.9572 11.915 14.9872 11.895 15.0172 11.875L15.4772 12.975L16.0772 14.415C15.2772 14.975 14.5172 15.595 13.8172 16.275L13.8072 16.265ZM15.8172 28.195C15.6672 28.555 15.2572 28.725 14.9072 28.575C14.5472 28.425 14.3772 28.015 14.5272 27.665L20.0172 14.455C20.2272 14.455 20.4372 14.455 20.6372 14.475L21.0772 15.535L15.8172 28.195ZM29.1472 28.195C29.0772 28.365 28.9372 28.505 28.7672 28.575C28.4072 28.725 27.9972 28.555 27.8572 28.195L22.4872 15.255L21.1372 12.005L20.9772 11.615C20.9772 11.615 20.9672 11.585 20.9572 11.575L20.1672 9.675L19.6172 8.335L17.1472 2.375C17.0172 2.025 17.1872 1.625 17.5372 1.485C17.8872 1.345 18.2872 1.495 18.4472 1.845L21.2072 8.485L22.7172 12.115V12.135L29.1672 27.645C29.2372 27.815 29.2372 28.015 29.1672 28.185L29.1472 28.195ZM24.1072 11.875L24.6372 10.595H24.6872C24.8872 10.575 25.0872 10.565 25.2872 10.575C25.3472 10.575 25.4072 10.575 25.4672 10.585C25.6272 10.595 25.7872 10.615 25.9372 10.645C25.9972 10.645 26.0472 10.665 26.1072 10.675C26.2972 10.715 26.4872 10.765 26.6672 10.825C26.7372 10.845 26.8072 10.875 26.8772 10.895C27.0272 10.945 27.1772 11.015 27.3272 11.075C27.3672 11.095 27.4072 11.105 27.4372 11.125C27.1872 11.735 26.9372 12.335 26.6872 12.935L26.3772 13.695C25.8172 13.435 25.2372 13.245 24.6272 13.145L24.0972 11.865L24.1072 11.875Z" fill="#E20613"/>
</svg>
