<svg width="33" height="18" viewBox="0 0 33 18" fill="none" xmlns="http://www.w3.org/2000/svg">
<g clip-path="url(#clip0_328_244)">
<path d="M6.70028 18H0.820312L6.02591 9L0.820312 0H6.70028L11.908 9L6.70028 18ZM1.54256 17.5837H6.46092L11.4272 9L6.46092 0.416281H1.54256L6.5088 9L1.54256 17.5837Z" fill="#ED1C24"/>
<path d="M17.1864 18H11.3065L16.5121 9L11.3065 0H17.1864L22.3941 9L17.1864 18ZM12.0287 17.5837H16.9471L21.9133 9L16.9471 0.416281H12.0287L16.9949 9L12.0287 17.5837Z" fill="#ED1C24"/>
<path d="M27.6725 18H21.7925L26.9981 9L21.7925 0H27.6725L32.8802 9L27.6725 18ZM22.5148 17.5837H27.4332L32.3994 9L27.4332 0.416281H22.5148L27.481 9L22.5148 17.5837Z" fill="#ED1C24"/>
</g>
<defs>
<clipPath id="clip0_328_244">
<rect width="32.0599" height="18" fill="white" transform="translate(0.820312)"/>
</clipPath>
</defs>
</svg>
